<svg xmlns="http://www.w3.org/2000/svg" xmlns:xlink="http://www.w3.org/1999/xlink" width="500" zoomAndPan="magnify" viewBox="0 0 375 374.999991" height="500" preserveAspectRatio="xMidYMid meet" version="1.0"><defs><g/><clipPath id="b4a9b7e460"><path d="M 84.375 173.570312 L 290.71875 173.570312 L 290.71875 201.429688 L 84.375 201.429688 Z M 84.375 173.570312 " clip-rule="nonzero"/></clipPath><clipPath id="bc1ce89250"><path d="M 98.304688 173.570312 L 276.695312 173.570312 C 284.386719 173.570312 290.625 179.804688 290.625 187.5 C 290.625 195.195312 284.386719 201.429688 276.695312 201.429688 L 98.304688 201.429688 C 90.613281 201.429688 84.375 195.195312 84.375 187.5 C 84.375 179.804688 90.613281 173.570312 98.304688 173.570312 Z M 98.304688 173.570312 " clip-rule="nonzero"/></clipPath><clipPath id="0ece734865"><path d="M 173.570312 84.277344 L 201.433594 84.277344 L 201.433594 290.621094 L 173.570312 290.621094 Z M 173.570312 84.277344 " clip-rule="nonzero"/></clipPath><clipPath id="4ce8c2eef0"><path d="M 173.570312 276.691406 L 173.570312 98.300781 C 173.570312 90.609375 179.808594 84.371094 187.503906 84.371094 C 195.195312 84.371094 201.433594 90.609375 201.433594 98.300781 L 201.433594 276.691406 C 201.433594 284.386719 195.195312 290.621094 187.503906 290.621094 C 179.808594 290.621094 173.570312 284.386719 173.570312 276.691406 Z M 173.570312 276.691406 " clip-rule="nonzero"/></clipPath></defs><g clip-path="url(#b4a9b7e460)"><g clip-path="url(#bc1ce89250)"><path fill="#ffffff" d="M 84.375 173.570312 L 290.609375 173.570312 L 290.609375 201.429688 L 84.375 201.429688 Z M 84.375 173.570312 " fill-opacity="1" fill-rule="nonzero"/></g></g><g clip-path="url(#0ece734865)"><g clip-path="url(#4ce8c2eef0)"><path fill="#ffffff" d="M 173.570312 290.621094 L 173.570312 84.386719 L 201.433594 84.386719 L 201.433594 290.621094 Z M 173.570312 290.621094 " fill-opacity="1" fill-rule="nonzero"/></g></g><g fill="#ffffff" fill-opacity="1"><g transform="translate(110.848005, 160.374964)"><g><path d="M 26.71875 -56 L 26.71875 0 L 10.875 0 L 10.875 -43.765625 L 0.484375 -43.765625 L 0.484375 -56 Z M 26.71875 -56 "/></g></g></g><g fill="#ffffff" fill-opacity="1"><g transform="translate(223.672564, 160.374964)"><g><path d="M 46 -12.5625 L 46 0 L 2.40625 0 L 2.40625 -9.921875 L 23.359375 -29.515625 C 25.390625 -31.441406 26.75 -33.082031 27.4375 -34.4375 C 28.132812 -35.800781 28.484375 -37.175781 28.484375 -38.5625 C 28.484375 -40.375 27.867188 -41.785156 26.640625 -42.796875 C 25.410156 -43.804688 23.625 -44.3125 21.28125 -44.3125 C 19.195312 -44.3125 17.285156 -43.84375 15.546875 -42.90625 C 13.816406 -41.976562 12.394531 -40.632812 11.28125 -38.875 L -0.484375 -45.4375 C 1.703125 -49.0625 4.769531 -51.914062 8.71875 -54 C 12.664062 -56.082031 17.332031 -57.125 22.71875 -57.125 C 26.988281 -57.125 30.757812 -56.425781 34.03125 -55.03125 C 37.3125 -53.644531 39.875 -51.660156 41.71875 -49.078125 C 43.5625 -46.492188 44.484375 -43.492188 44.484375 -40.078125 C 44.484375 -37.035156 43.828125 -34.164062 42.515625 -31.46875 C 41.210938 -28.78125 38.691406 -25.726562 34.953125 -22.3125 L 24.40625 -12.5625 Z M 46 -12.5625 "/></g></g></g><g fill="#ffffff" fill-opacity="1"><g transform="translate(102.926131, 270.875008)"><g><path d="M 31.4375 -33.59375 C 36.082031 -32.632812 39.644531 -30.726562 42.125 -27.875 C 44.601562 -25.019531 45.84375 -21.566406 45.84375 -17.515625 C 45.84375 -14.210938 44.945312 -11.144531 43.15625 -8.3125 C 41.375 -5.488281 38.65625 -3.207031 35 -1.46875 C 31.34375 0.257812 26.820312 1.125 21.4375 1.125 C 17.488281 1.125 13.582031 0.644531 9.71875 -0.3125 C 5.851562 -1.28125 2.507812 -2.644531 -0.3125 -4.40625 L 5.4375 -16.3125 C 7.625 -14.820312 10.085938 -13.675781 12.828125 -12.875 C 15.578125 -12.082031 18.285156 -11.6875 20.953125 -11.6875 C 23.679688 -11.6875 25.84375 -12.191406 27.4375 -13.203125 C 29.039062 -14.210938 29.84375 -15.648438 29.84375 -17.515625 C 29.84375 -21.140625 26.988281 -22.953125 21.28125 -22.953125 L 14.640625 -22.953125 L 14.640625 -32.953125 L 24.640625 -43.765625 L 2.5625 -43.765625 L 2.5625 -56 L 43.046875 -56 L 43.046875 -46.078125 Z M 31.4375 -33.59375 "/></g></g></g><g fill="#ffffff" fill-opacity="1"><g transform="translate(219.629594, 270.875008)"><g><path d="M 55.515625 -10.71875 L 47.203125 -10.71875 L 47.203125 0 L 31.765625 0 L 31.765625 -10.71875 L 2.15625 -10.71875 L 2.15625 -21.046875 L 27.28125 -56 L 43.6875 -56 L 20.875 -23.28125 L 32.234375 -23.28125 L 32.234375 -32.796875 L 47.203125 -32.796875 L 47.203125 -23.28125 L 55.515625 -23.28125 Z M 55.515625 -10.71875 "/></g></g></g></svg>