<svg xmlns="http://www.w3.org/2000/svg" xmlns:xlink="http://www.w3.org/1999/xlink" width="500" zoomAndPan="magnify" viewBox="0 0 375 374.999991" height="500" preserveAspectRatio="xMidYMid meet" version="1.0"><defs><clipPath id="26ecbde61d"><path d="M 120.847656 72.34375 L 294.386719 72.34375 L 294.386719 101.226562 L 120.847656 101.226562 Z M 120.847656 72.34375 " clip-rule="nonzero"/></clipPath><clipPath id="90770cb313"><path d="M 135.292969 72.34375 L 279.867188 72.34375 C 287.84375 72.34375 294.3125 78.808594 294.3125 86.785156 C 294.3125 94.761719 287.84375 101.226562 279.867188 101.226562 L 135.292969 101.226562 C 127.316406 101.226562 120.847656 94.761719 120.847656 86.785156 C 120.847656 78.808594 127.316406 72.34375 135.292969 72.34375 Z M 135.292969 72.34375 " clip-rule="nonzero"/></clipPath><clipPath id="c57c9f67bd"><path d="M 120.851562 72.246094 L 148.710938 72.246094 L 148.710938 278.589844 L 120.851562 278.589844 Z M 120.851562 72.246094 " clip-rule="nonzero"/></clipPath><clipPath id="8066182e19"><path d="M 120.851562 264.660156 L 120.851562 86.269531 C 120.851562 78.578125 127.089844 72.339844 134.78125 72.339844 C 142.476562 72.339844 148.710938 78.578125 148.710938 86.269531 L 148.710938 264.660156 C 148.710938 272.351562 142.476562 278.589844 134.78125 278.589844 C 127.089844 278.589844 120.851562 272.351562 120.851562 264.660156 Z M 120.851562 264.660156 " clip-rule="nonzero"/></clipPath><clipPath id="a3697f9500"><path d="M 120.792969 249.707031 L 294.332031 249.707031 L 294.332031 278.59375 L 120.792969 278.59375 Z M 120.792969 249.707031 " clip-rule="nonzero"/></clipPath><clipPath id="010e1be098"><path d="M 135.234375 249.707031 L 279.8125 249.707031 C 287.789062 249.707031 294.257812 256.171875 294.257812 264.148438 C 294.257812 272.125 287.789062 278.59375 279.8125 278.59375 L 135.234375 278.59375 C 127.257812 278.59375 120.792969 272.125 120.792969 264.148438 C 120.792969 256.171875 127.257812 249.707031 135.234375 249.707031 Z M 135.234375 249.707031 " clip-rule="nonzero"/></clipPath><clipPath id="4a0887e67c"><path d="M 266.398438 72.246094 L 294.257812 72.246094 L 294.257812 278.589844 L 266.398438 278.589844 Z M 266.398438 72.246094 " clip-rule="nonzero"/></clipPath><clipPath id="e152950c99"><path d="M 266.398438 264.660156 L 266.398438 86.269531 C 266.398438 78.578125 272.636719 72.339844 280.328125 72.339844 C 288.023438 72.339844 294.257812 78.578125 294.257812 86.269531 L 294.257812 264.660156 C 294.257812 272.351562 288.023438 278.589844 280.328125 278.589844 C 272.636719 278.589844 266.398438 272.351562 266.398438 264.660156 Z M 266.398438 264.660156 " clip-rule="nonzero"/></clipPath><clipPath id="676ddea916"><path d="M 170.242188 124.300781 L 244.980469 124.300781 L 244.980469 153.828125 L 170.242188 153.828125 Z M 170.242188 124.300781 " clip-rule="nonzero"/></clipPath><clipPath id="f3449da52e"><path d="M 185.003906 124.300781 L 230.15625 124.300781 C 238.308594 124.300781 244.917969 130.910156 244.917969 139.066406 C 244.917969 147.21875 238.308594 153.828125 230.15625 153.828125 L 185.003906 153.828125 C 176.851562 153.828125 170.242188 147.21875 170.242188 139.066406 C 170.242188 130.910156 176.851562 124.300781 185.003906 124.300781 Z M 185.003906 124.300781 " clip-rule="nonzero"/></clipPath><clipPath id="fad8f9f89d"><path d="M 79 75 L 137 75 L 137 111 L 79 111 Z M 79 75 " clip-rule="nonzero"/></clipPath><clipPath id="87da3b5c7a"><path d="M 77.132812 98.113281 L 132.28125 72.339844 L 139.285156 87.328125 L 84.136719 113.097656 Z M 77.132812 98.113281 " clip-rule="nonzero"/></clipPath><clipPath id="848fc79d61"><path d="M 84.625 94.609375 L 124.78125 75.84375 C 126.769531 74.914062 129.046875 74.8125 131.109375 75.5625 C 133.167969 76.3125 134.851562 77.847656 135.777344 79.835938 C 136.707031 81.824219 136.808594 84.097656 136.058594 86.160156 C 135.3125 88.222656 133.773438 89.902344 131.785156 90.832031 L 91.628906 109.597656 C 89.640625 110.527344 87.367188 110.628906 85.304688 109.878906 C 83.242188 109.128906 81.5625 107.59375 80.632812 105.605469 C 79.703125 103.617188 79.601562 101.34375 80.351562 99.28125 C 81.101562 97.21875 82.636719 95.539062 84.625 94.609375 Z M 84.625 94.609375 " clip-rule="nonzero"/></clipPath><clipPath id="7ace1073a2"><path d="M 80 260 L 138 260 L 138 297 L 80 297 Z M 80 260 " clip-rule="nonzero"/></clipPath><clipPath id="ccf7a11eae"><path d="M 77.882812 283.984375 L 133.03125 258.210938 L 140.035156 273.199219 L 84.886719 298.96875 Z M 77.882812 283.984375 " clip-rule="nonzero"/></clipPath><clipPath id="eebde27352"><path d="M 85.375 280.480469 L 125.53125 261.714844 C 127.519531 260.785156 129.796875 260.683594 131.859375 261.433594 C 133.917969 262.183594 135.601562 263.71875 136.527344 265.707031 C 137.457031 267.695312 137.558594 269.96875 136.808594 272.03125 C 136.0625 274.09375 134.523438 275.773438 132.535156 276.703125 L 92.378906 295.46875 C 90.390625 296.398438 88.117188 296.5 86.054688 295.75 C 83.992188 295 82.3125 293.464844 81.382812 291.476562 C 80.453125 289.488281 80.351562 287.214844 81.101562 285.152344 C 81.851562 283.089844 83.386719 281.410156 85.375 280.480469 Z M 85.375 280.480469 " clip-rule="nonzero"/></clipPath><clipPath id="f2cc8d85e6"><path d="M 80.34375 94.898438 L 100.007812 94.898438 L 100.007812 292 L 80.34375 292 Z M 80.34375 94.898438 " clip-rule="nonzero"/></clipPath><clipPath id="bbb458bc92"><path d="M 80.34375 282.167969 L 80.34375 104.800781 C 80.34375 99.371094 84.746094 94.96875 90.175781 94.96875 C 95.605469 94.96875 100.007812 99.371094 100.007812 104.800781 L 100.007812 282.167969 C 100.007812 287.597656 95.605469 292 90.175781 292 C 84.746094 292 80.34375 287.597656 80.34375 282.167969 Z M 80.34375 282.167969 " clip-rule="nonzero"/></clipPath><clipPath id="525089a5b1"><path d="M 80.308594 282.160156 L 255.855469 282.160156 L 255.855469 300.800781 L 80.308594 300.800781 Z M 80.308594 282.160156 " clip-rule="nonzero"/></clipPath><clipPath id="c62153f1a5"><path d="M 246.535156 300.800781 L 89.664062 300.800781 C 84.515625 300.800781 80.34375 296.628906 80.34375 291.480469 C 80.34375 286.332031 84.515625 282.160156 89.664062 282.160156 L 246.535156 282.160156 C 251.683594 282.160156 255.855469 286.332031 255.855469 291.480469 C 255.855469 296.628906 251.683594 300.800781 246.535156 300.800781 Z M 246.535156 300.800781 " clip-rule="nonzero"/></clipPath><clipPath id="13bd848f03"><path d="M 237 259 L 295 259 L 295 299 L 237 299 Z M 237 259 " clip-rule="nonzero"/></clipPath><clipPath id="cd5b42b214"><path d="M 233.222656 281.570312 L 288.082031 255.933594 L 297.933594 277.019531 L 243.074219 302.65625 Z M 233.222656 281.570312 " clip-rule="nonzero"/></clipPath><clipPath id="b59f187c58"><path d="M 243.765625 276.640625 L 277.472656 260.890625 C 280.269531 259.582031 283.46875 259.441406 286.371094 260.496094 C 289.273438 261.546875 291.636719 263.710938 292.945312 266.507812 C 294.25 269.304688 294.394531 272.503906 293.339844 275.40625 C 292.285156 278.308594 290.125 280.671875 287.328125 281.976562 L 253.617188 297.730469 C 250.824219 299.035156 247.621094 299.179688 244.71875 298.125 C 241.820312 297.070312 239.453125 294.910156 238.148438 292.113281 C 236.839844 289.316406 236.699219 286.117188 237.753906 283.214844 C 238.804688 280.3125 240.96875 277.949219 243.765625 276.640625 Z M 243.765625 276.640625 " clip-rule="nonzero"/></clipPath></defs><g clip-path="url(#26ecbde61d)"><g clip-path="url(#90770cb313)"><path fill="#ffffff" d="M 120.847656 72.34375 L 294.273438 72.34375 L 294.273438 101.226562 L 120.847656 101.226562 Z M 120.847656 72.34375 " fill-opacity="1" fill-rule="nonzero"/></g></g><g clip-path="url(#c57c9f67bd)"><g clip-path="url(#8066182e19)"><path fill="#ffffff" d="M 120.851562 278.589844 L 120.851562 72.355469 L 148.710938 72.355469 L 148.710938 278.589844 Z M 120.851562 278.589844 " fill-opacity="1" fill-rule="nonzero"/></g></g><g clip-path="url(#a3697f9500)"><g clip-path="url(#010e1be098)"><path fill="#ffffff" d="M 120.792969 249.707031 L 294.21875 249.707031 L 294.21875 278.59375 L 120.792969 278.59375 Z M 120.792969 249.707031 " fill-opacity="1" fill-rule="nonzero"/></g></g><g clip-path="url(#4a0887e67c)"><g clip-path="url(#e152950c99)"><path fill="#ffffff" d="M 266.398438 278.589844 L 266.398438 72.355469 L 294.257812 72.355469 L 294.257812 278.589844 Z M 266.398438 278.589844 " fill-opacity="1" fill-rule="nonzero"/></g></g><g clip-path="url(#676ddea916)"><g clip-path="url(#f3449da52e)"><path fill="#ffffff" d="M 170.242188 124.300781 L 244.867188 124.300781 L 244.867188 153.828125 L 170.242188 153.828125 Z M 170.242188 124.300781 " fill-opacity="1" fill-rule="nonzero"/></g></g><g clip-path="url(#fad8f9f89d)"><g clip-path="url(#87da3b5c7a)"><g clip-path="url(#848fc79d61)"><path fill="#ffffff" d="M 77.132812 98.113281 L 132.28125 72.339844 L 139.285156 87.328125 L 84.136719 113.097656 Z M 77.132812 98.113281 " fill-opacity="1" fill-rule="nonzero"/></g></g></g><g clip-path="url(#7ace1073a2)"><g clip-path="url(#ccf7a11eae)"><g clip-path="url(#eebde27352)"><path fill="#ffffff" d="M 77.882812 283.984375 L 133.03125 258.210938 L 140.035156 273.199219 L 84.886719 298.96875 Z M 77.882812 283.984375 " fill-opacity="1" fill-rule="nonzero"/></g></g></g><g clip-path="url(#f2cc8d85e6)"><g clip-path="url(#bbb458bc92)"><path fill="#ffffff" d="M 80.34375 292 L 80.34375 94.976562 L 100.007812 94.976562 L 100.007812 292 Z M 80.34375 292 " fill-opacity="1" fill-rule="nonzero"/></g></g><g clip-path="url(#525089a5b1)"><g clip-path="url(#c62153f1a5)"><path fill="#ffffff" d="M 255.855469 300.800781 L 80.308594 300.800781 L 80.308594 282.160156 L 255.855469 282.160156 Z M 255.855469 300.800781 " fill-opacity="1" fill-rule="nonzero"/></g></g><g clip-path="url(#13bd848f03)"><g clip-path="url(#cd5b42b214)"><g clip-path="url(#b59f187c58)"><path fill="#ffffff" d="M 233.222656 281.570312 L 288 255.972656 L 297.851562 277.058594 L 243.074219 302.65625 Z M 233.222656 281.570312 " fill-opacity="1" fill-rule="nonzero"/></g></g></g></svg>