<svg xmlns="http://www.w3.org/2000/svg" xmlns:xlink="http://www.w3.org/1999/xlink" width="500" zoomAndPan="magnify" viewBox="0 0 375 374.999991" height="500" preserveAspectRatio="xMidYMid meet" version="1.0"><defs><clipPath id="ce79d05709"><path d="M 73.921875 119 L 168 119 L 168 253 L 73.921875 253 Z M 73.921875 119 " clip-rule="nonzero"/></clipPath><clipPath id="9d582e9c77"><path d="M 212 151 L 299 151 L 299 310.796875 L 212 310.796875 Z M 212 151 " clip-rule="nonzero"/></clipPath><clipPath id="62da927f77"><path d="M 96.003906 186.679688 L 125.847656 186.679688 L 125.847656 232.417969 L 96.003906 232.417969 Z M 96.003906 186.679688 " clip-rule="nonzero"/></clipPath><clipPath id="d05fa2d60c"><path d="M 115.5 203.023438 C 113.476562 208.800781 106.425781 219.449219 103.125 224.324219 C 100.875 227.550781 98.625 231.898438 97.351562 232.199219 C 96.824219 232.273438 96.300781 232.050781 96.074219 231.523438 C 95.101562 228.75 106.050781 204.976562 108.75 199.273438 C 109.726562 197.101562 110.25 195.300781 111.148438 195 C 111.675781 194.773438 112.351562 194.925781 112.726562 195.449219 C 113.699219 196.648438 113.476562 201.898438 113.324219 204.824219 C 113.25 207.375 112.875 209.101562 112.199219 212.101562 C 111.148438 216.898438 108.300781 229.5 106.875 231 C 106.5 231.300781 106.125 231.375 105.898438 231.300781 C 105.675781 231.148438 105.449219 230.851562 105.449219 230.398438 C 105.523438 227.550781 115.5 210.375 118.949219 202.273438 C 121.5 196.425781 123.898438 186.824219 125.023438 186.75 C 125.324219 186.75 125.773438 187.574219 125.699219 187.800781 C 125.625 188.023438 124.648438 188.175781 124.5 188.023438 C 124.273438 187.875 124.5 186.898438 124.726562 186.824219 C 124.875 186.75 125.550781 187.125 125.699219 187.726562 C 126.226562 189.675781 122.699219 197.175781 120.375 202.949219 C 117 210.976562 109.050781 229.125 106.875 231 C 106.425781 231.300781 106.125 231.375 105.898438 231.300781 C 105.675781 231.148438 105.523438 230.851562 105.449219 230.398438 C 105.300781 228.148438 109.726562 216.523438 110.773438 211.875 C 111.375 208.949219 111.675781 207.300781 111.824219 204.898438 C 111.976562 202.125 112.351562 196.351562 111.523438 196.199219 C 109.800781 195.898438 97.574219 227.324219 97.199219 230.925781 C 97.125 231.523438 97.574219 231.824219 97.425781 232.050781 C 97.273438 232.273438 96.675781 232.425781 96.449219 232.273438 C 96.226562 232.125 96.074219 231.824219 96.148438 231.300781 C 96.449219 228.523438 111.601562 209.25 113.476562 205.050781 C 114 203.851562 113.699219 202.949219 114.074219 202.5 C 114.300781 202.273438 114.824219 202.050781 115.050781 202.199219 C 115.273438 202.273438 115.5 203.023438 115.5 203.023438 " clip-rule="nonzero"/></clipPath><clipPath id="e700bb6782"><path d="M 87.398438 173.421875 L 132.753906 173.421875 L 132.753906 228 L 87.398438 228 Z M 87.398438 173.421875 " clip-rule="nonzero"/></clipPath><clipPath id="da76f68646"><path d="M 130.050781 195.75 C 118.273438 212.023438 113.851562 221.25 110.925781 224.25 C 109.5 225.675781 108.523438 226.125 107.175781 226.800781 C 105.824219 227.398438 104.324219 227.773438 102.824219 227.925781 C 101.398438 228.074219 99.824219 228 98.398438 227.699219 C 96.898438 227.324219 95.476562 226.726562 94.199219 225.976562 C 92.925781 225.226562 91.726562 224.175781 90.824219 223.050781 C 89.851562 221.925781 89.023438 220.574219 88.5 219.226562 C 87.976562 217.800781 87.675781 216.300781 87.601562 214.800781 C 87.523438 213.300781 87.675781 211.726562 88.125 210.375 C 88.5 208.949219 89.175781 207.523438 90 206.25 C 90.824219 205.050781 91.949219 203.925781 93.074219 203.023438 C 94.273438 202.125 95.699219 201.449219 97.125 200.925781 C 98.476562 200.476562 100.050781 200.25 101.550781 200.25 C 102.976562 200.25 104.550781 200.550781 105.976562 201 C 107.324219 201.523438 108.75 202.273438 109.875 203.175781 C 111.074219 204.074219 112.125 205.199219 112.949219 206.398438 C 113.773438 207.675781 114.449219 209.101562 114.824219 210.523438 C 115.199219 211.949219 115.351562 213.523438 115.273438 214.949219 C 115.199219 216.449219 114.824219 218.023438 114.300781 219.375 C 113.699219 220.726562 112.949219 222.074219 111.976562 223.199219 C 111 224.324219 109.800781 225.300781 108.523438 226.050781 C 107.25 226.800781 105.75 227.398438 104.324219 227.699219 C 102.898438 228 101.324219 228.074219 99.824219 227.925781 C 98.398438 227.773438 96.824219 227.324219 95.550781 226.726562 C 94.199219 226.050781 92.925781 225.148438 91.800781 224.175781 C 90.75 223.125 89.851562 221.851562 89.101562 220.574219 C 88.425781 219.226562 87.976562 217.726562 87.75 216.300781 C 87.523438 214.800781 87.375 213.449219 87.75 211.800781 C 88.273438 209.550781 89.625 206.925781 91.125 204 C 93.148438 200.023438 96.601562 194.699219 99.449219 190.5 C 102.074219 186.523438 105.75 181.574219 107.699219 179.25 C 108.675781 178.125 108.976562 177.601562 109.949219 176.851562 C 111.449219 175.800781 114.226562 174.449219 115.949219 173.925781 C 117.148438 173.625 117.976562 173.550781 119.25 173.625 C 121.050781 173.773438 123.824219 174.375 125.699219 175.425781 C 127.574219 176.476562 129.375 178.199219 130.5 180 C 131.699219 181.800781 132.449219 184.125 132.675781 186.226562 C 132.898438 188.398438 132.226562 191.101562 131.699219 192.824219 C 131.25 194.023438 130.050781 195.75 130.050781 195.75 " clip-rule="nonzero"/></clipPath><clipPath id="68bcb62307"><path d="M 78.136719 173.839844 L 140.375 173.839844 L 140.375 249 L 78.136719 249 Z M 78.136719 173.839844 " clip-rule="nonzero"/></clipPath><clipPath id="d9ddfb0d48"><path d="M 78.226562 231.601562 C 82.5 211.5 85.273438 209.625 85.949219 208.273438 C 86.25 207.675781 86.25 207.300781 86.324219 206.851562 C 86.476562 206.324219 86.476562 205.726562 86.625 205.351562 C 86.699219 205.050781 86.851562 204.898438 87 204.675781 C 87.074219 204.449219 87.074219 204.226562 87.148438 203.925781 C 87.375 203.550781 87.75 203.175781 88.050781 202.726562 C 88.273438 202.273438 88.5 201.75 88.726562 201.375 C 88.949219 201.148438 89.101562 201.074219 89.324219 200.851562 C 89.476562 200.699219 89.550781 200.476562 89.699219 200.25 C 90 199.949219 90.523438 199.648438 90.898438 199.351562 C 91.351562 199.050781 91.726562 198.523438 92.023438 198.300781 C 92.25 198.148438 92.476562 198.148438 92.699219 198 C 92.925781 197.925781 93.074219 197.699219 93.300781 197.550781 C 93.675781 197.398438 94.273438 197.25 94.726562 197.101562 C 95.25 196.949219 95.699219 196.574219 96.148438 196.5 C 96.375 196.425781 96.601562 196.425781 96.898438 196.425781 C 97.125 196.351562 97.273438 196.199219 97.574219 196.199219 C 98.023438 196.125 98.625 196.199219 99.074219 196.199219 C 99.601562 196.125 100.199219 195.976562 100.574219 196.050781 C 100.875 196.050781 101.101562 196.199219 101.324219 196.199219 C 101.550781 196.199219 101.773438 196.125 102.074219 196.199219 C 102.449219 196.273438 103.050781 196.574219 103.5 196.726562 C 103.949219 196.800781 104.625 197.175781 104.773438 196.949219 C 104.925781 196.726562 103.574219 195.148438 103.199219 194.175781 C 102.824219 193.125 102.523438 192 102.375 190.949219 C 102.226562 189.824219 102.148438 188.699219 102.300781 187.574219 C 102.449219 186.449219 102.675781 185.324219 103.050781 184.351562 C 103.425781 183.300781 103.949219 182.25 104.550781 181.351562 C 105.148438 180.449219 105.898438 179.550781 106.726562 178.800781 C 107.550781 178.050781 108.523438 177.375 109.5 176.851562 C 110.398438 176.324219 112.574219 175.648438 112.574219 175.648438 C 112.574219 175.648438 116.324219 173.625 119.101562 173.925781 C 124.125 174.375 138.148438 179.101562 140.023438 183.976562 C 141.601562 188.175781 135.898438 194.851562 133.574219 199.800781 C 131.476562 204.449219 129.074219 208.5 126.824219 212.925781 C 124.5 217.5 122.175781 223.199219 119.925781 226.949219 C 118.425781 229.648438 116.398438 231.375 115.425781 233.550781 C 114.675781 235.273438 115.273438 236.925781 114.148438 238.726562 C 112.125 241.800781 106.273438 247.425781 101.550781 248.476562 C 96.75 249.601562 89.25 248.023438 85.351562 245.101562 C 81.601562 242.25 78.226562 231.601562 78.226562 231.601562 " clip-rule="nonzero"/></clipPath><clipPath id="51a3768711"><path d="M 88.753906 206.0625 L 122.886719 206.0625 L 122.886719 245.183594 L 88.753906 245.183594 Z M 88.753906 206.0625 " clip-rule="nonzero"/></clipPath><clipPath id="e41edf8972"><path d="M 116.023438 229.199219 C 111.898438 233.699219 108.976562 220.726562 105.226562 218.773438 C 102.375 217.273438 96.148438 220.875 95.101562 219.601562 C 94.351562 218.851562 95.398438 216.601562 95.925781 215.25 C 96.449219 213.824219 97.199219 212.476562 98.175781 211.273438 C 99.074219 210.148438 100.199219 209.101562 101.476562 208.273438 C 102.75 207.523438 104.175781 206.925781 105.601562 206.550781 C 107.023438 206.175781 108.601562 206.023438 110.101562 206.175781 C 111.523438 206.25 113.101562 206.699219 114.449219 207.226562 C 115.800781 207.824219 117.148438 208.648438 118.199219 209.699219 C 119.324219 210.675781 120.300781 211.875 121.050781 213.148438 C 121.726562 214.425781 122.324219 215.925781 122.550781 217.351562 C 122.851562 218.851562 122.925781 220.425781 122.699219 221.851562 C 122.476562 223.351562 122.023438 224.851562 121.425781 226.125 C 120.75 227.476562 119.851562 228.75 118.800781 229.800781 C 117.75 230.851562 116.476562 231.75 115.125 232.425781 C 113.773438 233.101562 112.273438 233.550781 110.851562 233.773438 C 109.351562 233.925781 107.773438 233.925781 106.351562 233.625 C 104.925781 233.324219 103.425781 232.800781 102.148438 232.050781 C 100.875 231.375 99.601562 230.398438 98.625 229.273438 C 97.648438 228.148438 96.824219 226.875 96.226562 225.449219 C 95.625 224.101562 95.25 222.601562 95.101562 221.101562 C 95.023438 219.675781 95.101562 218.101562 95.476562 216.675781 C 95.851562 215.25 96.449219 213.75 97.273438 212.550781 C 98.023438 211.273438 99.074219 210.074219 100.273438 209.175781 C 101.398438 208.273438 102.75 207.449219 104.175781 207 C 105.523438 206.476562 107.101562 206.175781 108.601562 206.101562 C 110.023438 206.101562 111.601562 206.324219 113.023438 206.699219 C 114.449219 207.148438 115.875 207.898438 117.074219 208.726562 C 118.273438 209.625 119.398438 210.675781 120.226562 211.875 C 121.050781 213.074219 121.800781 214.5 122.25 215.925781 C 122.625 217.351562 123 218.550781 122.851562 220.351562 C 122.625 223.199219 121.5 227.773438 119.476562 231.226562 C 117 235.425781 112.648438 241.199219 108.148438 243.148438 C 103.949219 245.101562 96.675781 246.148438 93.449219 243.523438 C 89.398438 240.300781 88.351562 225.75 88.949219 221.25 C 89.25 219.074219 90.226562 218.25 91.199219 216.75 C 92.324219 215.101562 93.75 213 95.476562 211.726562 C 97.273438 210.449219 99.523438 209.550781 101.625 209.25 C 103.800781 208.949219 106.5 209.398438 108.300781 209.925781 C 109.5 210.300781 110.25 210.601562 111.226562 211.425781 C 112.726562 212.476562 114.824219 214.726562 115.726562 216.300781 C 116.476562 217.351562 116.773438 218.101562 117 219.375 C 117.375 221.175781 117.449219 224.25 117.148438 226.050781 C 116.925781 227.324219 116.023438 229.199219 116.023438 229.199219 " clip-rule="nonzero"/></clipPath><clipPath id="38b9780b77"><path d="M 238.1875 214.4375 L 287.792969 214.4375 L 287.792969 259.859375 L 238.1875 259.859375 Z M 238.1875 214.4375 " clip-rule="nonzero"/></clipPath><clipPath id="5ede1635ff"><path d="M 238.199219 243.449219 C 242.773438 219.074219 251.625 215.023438 258 214.648438 C 264.675781 214.351562 273.976562 217.949219 278.925781 222.601562 C 283.648438 227.101562 288.75 236.476562 287.398438 241.800781 C 286.125 246.898438 272.101562 254.023438 271.648438 254.101562 C 271.574219 254.101562 271.574219 254.101562 271.574219 254.101562 C 271.273438 254.101562 268.648438 258.898438 266.023438 259.574219 C 262.351562 260.625 254.925781 258.226562 250.273438 255.601562 C 245.550781 252.898438 238.199219 243.449219 238.199219 243.449219 " clip-rule="nonzero"/></clipPath><clipPath id="823f286a61"><path d="M 248.242188 228.742188 L 297.648438 228.742188 L 297.648438 303.8125 L 248.242188 303.8125 Z M 248.242188 228.742188 " clip-rule="nonzero"/></clipPath><clipPath id="fe3eeea881"><path d="M 248.25 270.523438 C 248.625 249.300781 249 244.574219 249.300781 241.875 C 249.523438 240.449219 249.601562 239.699219 249.976562 238.648438 C 250.351562 237.601562 250.800781 236.550781 251.398438 235.574219 C 252 234.675781 252.675781 233.773438 253.5 232.949219 C 254.25 232.199219 255.148438 231.523438 256.125 230.925781 C 257.101562 230.398438 258.148438 229.949219 259.199219 229.648438 C 260.25 229.273438 261.375 229.125 262.5 229.050781 C 263.625 228.976562 264.75 229.125 265.875 229.273438 C 266.925781 229.5 268.726562 230.175781 269.023438 230.324219 C 269.101562 230.398438 269.101562 230.398438 269.101562 230.398438 C 269.25 230.398438 269.550781 230.25 269.773438 230.175781 C 270 230.101562 270.148438 229.875 270.375 229.800781 C 270.824219 229.648438 271.425781 229.574219 271.875 229.425781 C 272.324219 229.273438 272.925781 229.050781 273.300781 228.976562 C 273.601562 228.898438 273.824219 228.976562 274.050781 228.976562 C 274.273438 228.898438 274.5 228.824219 274.800781 228.75 C 275.175781 228.75 275.773438 228.898438 276.300781 228.898438 C 276.75 228.976562 277.351562 228.824219 277.800781 228.898438 C 278.101562 228.976562 278.25 229.125 278.476562 229.125 C 278.773438 229.199219 279 229.125 279.226562 229.199219 C 279.675781 229.351562 280.125 229.648438 280.648438 229.800781 C 281.101562 230.023438 281.699219 230.101562 282.074219 230.324219 C 282.300781 230.476562 282.449219 230.625 282.675781 230.773438 C 282.898438 230.851562 283.125 230.925781 283.351562 231.074219 C 283.648438 231.300781 284.023438 231.75 284.476562 232.125 C 284.851562 232.425781 285.375 232.726562 285.675781 233.023438 C 285.824219 233.175781 285.898438 233.398438 286.050781 233.625 C 286.273438 233.773438 286.425781 233.925781 286.648438 234.148438 C 286.875 234.449219 287.101562 235.050781 287.324219 235.425781 C 287.625 235.875 288 236.324219 288.226562 236.699219 C 288.300781 236.925781 288.300781 237.148438 288.375 237.375 C 288.523438 237.601562 288.675781 237.824219 288.75 238.050781 C 288.898438 238.425781 288.824219 238.800781 289.050781 239.550781 C 289.574219 242.101562 292.273438 250.199219 293.625 255.449219 C 294.898438 260.550781 296.476562 265.648438 297 270.75 C 297.449219 275.699219 297.898438 280.800781 296.625 285.601562 C 295.351562 290.550781 292.875 296.851562 288.976562 299.851562 C 285.226562 302.773438 278.550781 303.976562 273.75 303.523438 C 269.023438 303.074219 264 300.523438 260.476562 297.449219 C 256.800781 294.300781 254.25 289.125 252.226562 284.625 C 250.199219 280.125 248.25 270.523438 248.25 270.523438 " clip-rule="nonzero"/></clipPath><clipPath id="12001d7c32"><path d="M 236.242188 233.789062 L 293.3125 233.789062 L 293.3125 306 L 236.242188 306 Z M 236.242188 233.789062 " clip-rule="nonzero"/></clipPath><clipPath id="3925f5986d"><path d="M 293.25 279.601562 C 291.148438 290.023438 289.648438 296.398438 286.425781 299.625 C 283.050781 303 277.125 305.398438 272.175781 305.773438 C 266.925781 306.226562 260.25 304.425781 255.824219 301.648438 C 251.550781 299.023438 248.324219 294.449219 245.773438 290.023438 C 243.148438 285.449219 241.726562 280.5 240.300781 274.648438 C 238.425781 267.300781 236.773438 254.175781 236.550781 249.148438 C 236.476562 247.050781 236.476562 246.148438 236.851562 244.726562 C 237.148438 243.226562 237.75 241.800781 238.5 240.523438 C 239.25 239.25 240.226562 238.050781 241.351562 237.074219 C 242.476562 236.175781 243.824219 235.351562 245.25 234.824219 C 246.601562 234.226562 248.175781 233.925781 249.601562 233.851562 C 251.101562 233.773438 252.675781 233.925781 254.101562 234.300781 C 255.523438 234.675781 256.949219 235.351562 258.148438 236.175781 C 259.351562 237 260.550781 238.125 261.375 239.324219 C 262.273438 240.449219 263.023438 241.875 263.550781 243.226562 C 264 244.648438 264.226562 246.226562 264.226562 247.726562 C 264.226562 249.148438 264 250.726562 263.476562 252.148438 C 263.023438 253.5 262.273438 254.925781 261.375 256.050781 C 260.476562 257.25 259.351562 258.375 258.148438 259.199219 C 256.949219 260.023438 255.523438 260.625 254.101562 261.074219 C 252.675781 261.449219 251.101562 261.601562 249.601562 261.523438 C 248.101562 261.449219 246.601562 261.148438 245.25 260.550781 C 243.824219 260.023438 242.476562 259.199219 241.351562 258.226562 C 240.226562 257.324219 239.25 256.125 238.5 254.851562 C 237.675781 253.574219 237.148438 252.074219 236.773438 250.648438 C 236.476562 249.226562 236.398438 247.648438 236.550781 246.148438 C 236.699219 244.726562 237.148438 243.226562 237.75 241.875 C 238.425781 240.523438 239.25 239.175781 240.300781 238.125 C 241.273438 237.074219 242.550781 236.101562 243.898438 235.425781 C 245.175781 234.75 246.675781 234.226562 248.101562 234 C 249.601562 233.773438 251.175781 233.773438 252.601562 234 C 254.101562 234.226562 255.601562 234.75 256.875 235.425781 C 258.148438 236.101562 259.425781 237.074219 260.476562 238.125 C 261.449219 239.25 262.351562 240.523438 262.949219 241.875 C 263.550781 243.226562 263.699219 244.199219 264.148438 246.148438 C 265.125 250.726562 267.675781 261.898438 267.523438 268.351562 C 267.449219 273.449219 264.898438 282 264.824219 282 C 264.75 282 265.199219 277.5 265.800781 275.324219 C 266.398438 273.226562 267.074219 270.976562 268.351562 269.175781 C 269.625 267.449219 271.574219 265.875 273.449219 264.976562 C 275.398438 264 278.175781 263.625 279.976562 263.550781 C 281.25 263.550781 282.074219 263.699219 283.273438 264.074219 C 285 264.675781 287.476562 265.875 289.050781 267.375 C 290.625 268.875 291.976562 270.898438 292.648438 272.925781 C 293.324219 274.949219 293.25 279.601562 293.25 279.601562 " clip-rule="nonzero"/></clipPath><clipPath id="57fbc0efa3"><path d="M 241.550781 275.824219 L 291.871094 275.824219 L 291.871094 307.148438 L 241.550781 307.148438 Z M 241.550781 275.824219 " clip-rule="nonzero"/></clipPath><clipPath id="c4ce935660"><path d="M 270.675781 305.476562 C 254.925781 303.523438 253.050781 301.050781 250.726562 298.875 C 248.175781 296.550781 244.574219 293.324219 243.074219 291 C 242.175781 289.5 241.800781 288.300781 241.648438 286.949219 C 241.5 285.523438 241.726562 283.949219 242.25 282.675781 C 242.773438 281.398438 243.75 280.050781 244.800781 279.148438 C 245.851562 278.25 247.273438 277.574219 248.625 277.273438 C 249.976562 276.976562 251.625 276.976562 252.976562 277.351562 C 254.324219 277.726562 255.824219 278.175781 256.726562 279.449219 C 258.074219 281.324219 256.425781 287.25 258.226562 288.824219 C 260.023438 290.398438 264.976562 290.023438 267.601562 288.976562 C 270.226562 287.925781 272.398438 284.625 274.125 282.523438 C 275.476562 280.875 275.851562 278.851562 277.273438 277.800781 C 278.773438 276.675781 281.175781 276 282.75 275.925781 C 283.875 275.773438 284.625 275.925781 285.601562 276.375 C 287.023438 276.976562 289.199219 278.324219 290.25 279.824219 C 291.226562 281.25 291.898438 283.5 291.824219 285.300781 C 291.75 287.101562 290.625 289.425781 289.726562 290.699219 C 289.050781 291.601562 288.523438 292.050781 287.476562 292.574219 C 286.125 293.25 283.425781 293.851562 281.925781 293.851562 C 280.800781 293.851562 280.050781 293.625 279.074219 293.101562 C 277.726562 292.351562 275.699219 290.476562 274.875 289.199219 C 274.273438 288.226562 274.050781 287.550781 273.976562 286.425781 C 273.824219 284.851562 274.199219 282.148438 274.800781 280.726562 C 275.25 279.75 275.699219 279.074219 276.601562 278.398438 C 277.800781 277.425781 279.976562 276.148438 281.773438 275.925781 C 283.574219 275.773438 285.976562 276.449219 287.398438 277.125 C 288.375 277.648438 288.976562 278.324219 289.648438 279 C 290.25 279.75 290.851562 280.425781 291.148438 281.476562 C 291.601562 282.976562 291.976562 285.074219 291.523438 287.25 C 290.773438 290.398438 287.398438 295.125 285.074219 298.273438 C 283.050781 301.050781 281.324219 303.898438 278.625 305.398438 C 275.773438 306.898438 271.5 307.125 268.125 306.976562 C 264.976562 306.898438 261.976562 306.074219 259.125 305.101562 C 256.351562 304.050781 253.574219 302.699219 251.175781 300.898438 C 248.550781 298.949219 245.550781 296.550781 244.125 293.699219 C 242.699219 290.773438 242.625 283.648438 242.699219 283.648438 C 242.773438 283.648438 244.875 292.5 244.5 292.648438 C 244.199219 292.726562 241.875 288.898438 241.648438 286.949219 C 241.5 284.925781 242.175781 282.375 243.300781 280.800781 C 244.5 279.148438 246.898438 277.800781 248.625 277.273438 C 250.125 276.824219 251.625 276.976562 252.976562 277.351562 C 254.324219 277.726562 255.300781 278.398438 256.726562 279.449219 C 259.199219 281.25 262.875 286.875 265.648438 287.925781 C 267.449219 288.601562 269.25 287.324219 270.898438 287.550781 C 272.324219 287.773438 273.75 288.226562 274.875 289.125 C 276.300781 290.324219 277.949219 292.648438 278.476562 294.449219 C 278.925781 295.875 278.773438 297.375 278.398438 298.726562 C 278.101562 300.074219 277.5 301.5 276.375 302.550781 C 275.101562 303.824219 270.675781 305.476562 270.675781 305.476562 " clip-rule="nonzero"/></clipPath><clipPath id="ef3de2b903"><path d="M 230.628906 215.398438 L 281.25 215.398438 L 281.25 295.164062 L 230.628906 295.164062 Z M 230.628906 215.398438 " clip-rule="nonzero"/></clipPath><clipPath id="281d34497f"><path d="M 245.925781 285.449219 C 242.398438 280.875 240.75 277.125 239.699219 274.050781 C 238.574219 270.824219 238.425781 267.148438 237.375 263.773438 C 236.398438 260.476562 234.675781 258.226562 233.699219 253.949219 C 232.050781 246.898438 230.25 230.925781 231 224.851562 C 231.300781 222.074219 231.898438 220.273438 232.949219 218.773438 C 233.851562 217.574219 234.976562 216.75 236.398438 216.226562 C 238.125 215.550781 240.976562 215.476562 242.773438 215.925781 C 244.199219 216.300781 245.476562 217.199219 246.449219 218.175781 C 247.351562 219.226562 247.875 219.898438 248.550781 221.925781 C 251.101562 228.824219 252.824219 261.449219 256.648438 270.300781 C 258.375 274.199219 260.851562 277.949219 262.425781 277.800781 C 263.699219 277.726562 264.449219 273.449219 265.574219 272.175781 C 266.324219 271.273438 266.851562 270.824219 267.898438 270.375 C 269.324219 269.773438 271.800781 269.175781 273.523438 269.476562 C 275.324219 269.773438 277.425781 270.824219 278.625 272.175781 C 279.898438 273.449219 280.875 275.550781 281.023438 277.351562 C 281.25 279.226562 280.726562 281.476562 279.824219 282.976562 C 278.851562 284.550781 277.125 286.050781 275.398438 286.726562 C 273.75 287.398438 271.425781 287.476562 269.699219 287.023438 C 267.898438 286.5 265.949219 284.925781 264.898438 283.800781 C 264.226562 282.976562 263.851562 282.300781 263.550781 281.175781 C 263.175781 279.675781 263.023438 277.199219 263.550781 275.476562 C 264.148438 273.75 265.574219 271.875 267.074219 270.898438 C 268.574219 269.851562 271.050781 269.398438 272.625 269.324219 C 273.675781 269.324219 274.425781 269.476562 275.398438 270 C 276.824219 270.675781 278.851562 272.175781 279.824219 273.75 C 280.726562 275.25 281.25 277.5 281.023438 279.300781 C 280.875 281.101562 279.976562 282.75 278.625 284.550781 C 276.449219 287.398438 271.875 291.976562 268.050781 293.699219 C 264.824219 295.125 260.925781 295.351562 257.625 294.976562 C 254.550781 294.675781 251.550781 293.398438 248.925781 291.898438 C 246.226562 290.398438 243.523438 288.300781 241.800781 285.75 C 240 283.125 239.023438 279.601562 238.425781 276.300781 C 237.824219 273 238.726562 270.523438 238.273438 265.949219 C 237.449219 256.800781 230.398438 232.425781 231 224.851562 C 231.148438 221.925781 231.675781 220.351562 232.949219 218.773438 C 234.226562 217.273438 236.476562 215.925781 238.5 215.550781 C 240.449219 215.25 243.074219 215.773438 244.726562 216.824219 C 246.449219 217.875 247.949219 220.5 248.550781 221.925781 C 248.925781 222.75 249.226562 223.875 248.925781 224.023438 C 248.324219 224.398438 240.449219 215.851562 240.375 215.851562 C 240.375 215.925781 246.976562 220.5 249 224.773438 C 252 231.226562 250.351562 246.601562 251.925781 253.199219 C 252.824219 256.949219 254.324219 258.75 255.226562 261.675781 C 256.125 264.675781 256.125 268.648438 257.324219 271.050781 C 258.226562 272.925781 260.023438 273.898438 260.773438 275.476562 C 261.375 276.75 261.75 278.25 261.75 279.601562 C 261.75 281.023438 261.449219 282.523438 260.699219 283.800781 C 259.726562 285.375 257.699219 287.324219 255.824219 288 C 253.949219 288.675781 251.175781 288.449219 249.449219 287.925781 C 248.023438 287.476562 245.925781 285.449219 245.925781 285.449219 " clip-rule="nonzero"/></clipPath><clipPath id="622aaa1efa"><path d="M 228.777344 204.929688 L 285.773438 204.929688 L 285.773438 236.96875 L 228.777344 236.96875 Z M 228.777344 204.929688 " clip-rule="nonzero"/></clipPath><clipPath id="abd18506f0"><path d="M 247.5 231.824219 C 237.523438 226.199219 234.601562 222.675781 232.574219 220.199219 C 231.074219 218.324219 229.050781 216.824219 228.824219 215.023438 C 228.675781 213.375 229.726562 210.824219 230.925781 209.851562 C 232.125 208.875 234.148438 208.949219 236.175781 209.101562 C 239.101562 209.25 242.851562 211.425781 246.601562 212.175781 C 250.875 213 255.675781 213.375 260.398438 213.675781 C 265.425781 213.976562 273.074219 212.699219 275.925781 213.898438 C 277.273438 214.425781 277.949219 215.398438 278.398438 216.300781 C 278.851562 216.976562 279 217.800781 278.925781 218.550781 C 278.773438 219.601562 278.175781 221.023438 277.574219 221.773438 C 276.976562 222.375 276.601562 222.75 275.550781 223.050781 C 272.773438 223.648438 262.875 222 258.523438 221.25 C 255.898438 220.800781 253.574219 220.425781 252.074219 219.75 C 251.25 219.375 250.726562 219.074219 250.199219 218.398438 C 249.601562 217.648438 249 216.226562 249.074219 215.175781 C 249.074219 214.050781 249.75 212.699219 250.351562 211.949219 C 250.875 211.351562 251.324219 210.976562 252.300781 210.675781 C 254.625 209.925781 261.148438 211.125 265.050781 210.375 C 268.5 209.625 271.726562 206.476562 274.5 206.550781 C 276.675781 206.625 278.625 207.449219 280.273438 209.324219 C 282.898438 212.324219 284.925781 221.773438 285.449219 225.824219 C 285.75 228.074219 285.824219 229.949219 285.074219 231.300781 C 284.398438 232.574219 282.601562 233.625 281.398438 233.925781 C 280.648438 234.148438 279.824219 234.074219 279.074219 233.773438 C 278.175781 233.324219 277.199219 232.726562 276.449219 231.523438 C 275.101562 229.125 275.101562 222.375 274.199219 218.699219 C 273.449219 215.699219 271.726562 213 271.726562 210.75 C 271.648438 209.101562 272.023438 207.375 273 206.398438 C 273.898438 205.425781 276 204.898438 277.273438 204.976562 C 278.398438 205.125 279.675781 205.726562 280.273438 206.699219 C 281.023438 207.976562 280.726562 210 280.648438 212.398438 C 280.425781 216.300781 279.375 224.398438 278.25 228.074219 C 277.574219 230.175781 277.050781 231.449219 275.773438 232.800781 C 274.351562 234.375 271.574219 236.398438 269.851562 236.699219 C 268.726562 236.925781 267.675781 236.625 266.773438 236.175781 C 265.949219 235.726562 265.050781 234.824219 264.675781 233.925781 C 264.300781 233.023438 264.148438 231.75 264.375 230.773438 C 264.601562 229.875 265.125 228.75 266.023438 228.148438 C 267 227.398438 269.175781 226.875 270.449219 227.25 C 271.800781 227.625 273.300781 229.199219 273.75 230.398438 C 274.125 231.375 274.125 232.574219 273.75 233.476562 C 273.226562 234.675781 271.574219 236.175781 270.375 236.625 C 269.398438 237 268.199219 236.925781 267.300781 236.398438 C 266.175781 235.875 264.675781 234.148438 264.375 232.875 C 264.074219 231.898438 264.226562 230.925781 264.75 229.800781 C 265.425781 228.148438 268.125 226.800781 269.25 224.25 C 271.050781 220.351562 271.5 207.675781 272.101562 207.675781 C 272.398438 207.675781 272.773438 212.851562 272.699219 212.851562 C 272.625 212.925781 271.5 209.699219 271.800781 208.425781 C 272.023438 207.375 273.074219 206.25 273.898438 205.648438 C 274.5 205.199219 275.25 204.898438 276.074219 204.976562 C 277.273438 204.976562 279.148438 205.648438 280.273438 206.699219 C 281.699219 208.125 282.300781 210.75 283.125 213.523438 C 284.25 217.574219 286.125 225.601562 285.601562 229.050781 C 285.300781 230.851562 284.699219 232.273438 283.574219 233.101562 C 282.523438 233.851562 280.351562 234.074219 279.074219 233.773438 C 278.023438 233.398438 277.273438 232.726562 276.449219 231.523438 C 274.875 229.125 273.226562 222.148438 272.550781 218.699219 C 272.101562 216.449219 271.5 213.300781 272.023438 213.074219 C 272.550781 212.851562 275.476562 215.699219 275.324219 216.75 C 275.175781 217.875 272.851562 219 270.675781 219.675781 C 266.773438 220.800781 256.800781 221.175781 253.199219 220.050781 C 251.398438 219.523438 250.125 218.625 249.601562 217.425781 C 249 216.226562 249 214.050781 249.675781 212.925781 C 250.273438 211.726562 251.550781 210.824219 253.425781 210.375 C 257.699219 209.476562 272.101562 211.726562 275.925781 213.898438 C 277.648438 214.875 278.398438 216.300781 278.773438 217.425781 C 279.074219 218.25 279 219 278.699219 219.75 C 278.398438 220.648438 277.574219 221.851562 276.601562 222.523438 C 275.550781 223.199219 274.273438 223.425781 272.476562 223.648438 C 269.398438 224.101562 264.300781 223.800781 259.5 223.351562 C 253.5 222.898438 243.75 222.300781 239.476562 220.574219 C 237.148438 219.675781 235.425781 218.851562 234.601562 217.199219 C 233.773438 215.324219 234 210 235.273438 209.550781 C 237.148438 208.800781 244.800781 219.898438 247.800781 221.773438 C 249.226562 222.601562 250.425781 222.375 251.324219 222.898438 C 252 223.351562 252.601562 223.800781 252.976562 224.550781 C 253.5 225.375 253.800781 226.949219 253.726562 227.925781 C 253.574219 228.75 253.273438 229.425781 252.75 230.023438 C 252.148438 230.851562 250.800781 231.675781 249.898438 231.898438 C 249.074219 232.125 247.5 231.824219 247.5 231.824219 " clip-rule="nonzero"/></clipPath><clipPath id="184a155717"><path d="M 223.453125 207.628906 L 239.148438 207.628906 L 239.148438 236.90625 L 223.453125 236.90625 Z M 223.453125 207.628906 " clip-rule="nonzero"/></clipPath><clipPath id="6f7b92153f"><path d="M 229.949219 234.226562 C 224.324219 217.125 223.199219 213.601562 223.574219 211.574219 C 223.800781 210.375 224.398438 209.550781 225.148438 208.875 C 225.898438 208.199219 227.023438 207.75 228 207.675781 C 228.976562 207.601562 230.175781 207.976562 231 208.5 C 231.824219 209.023438 232.648438 209.925781 232.949219 210.976562 C 233.25 212.175781 233.023438 214.351562 232.273438 215.476562 C 231.449219 216.523438 229.5 217.5 228.148438 217.425781 C 226.800781 217.351562 224.925781 216.148438 224.175781 215.101562 C 223.574219 214.273438 223.351562 213.074219 223.5 212.101562 C 223.574219 211.125 224.101562 210 224.773438 209.25 C 225.449219 208.5 226.5 207.898438 227.476562 207.75 C 228.449219 207.601562 229.726562 207.75 230.550781 208.199219 C 231.449219 208.648438 232.199219 209.398438 232.726562 210.449219 C 233.550781 212.023438 233.398438 214.5 234.148438 217.125 C 235.199219 220.875 238.5 228 239.023438 230.699219 C 239.175781 231.75 239.175781 232.273438 239.023438 233.023438 C 238.875 233.773438 238.5 234.523438 237.976562 235.125 C 237.226562 235.800781 235.875 236.550781 234.898438 236.773438 C 234.074219 236.925781 233.324219 236.773438 232.574219 236.476562 C 231.675781 236.101562 229.949219 234.226562 229.949219 234.226562 " clip-rule="nonzero"/></clipPath><clipPath id="91b8ab7b5e"><path d="M 76.457031 165.964844 L 113.335938 165.964844 L 113.335938 247.527344 L 76.457031 247.527344 Z M 76.457031 165.964844 " clip-rule="nonzero"/></clipPath><clipPath id="29cecccef4"><path d="M 84.523438 245.925781 C 77.773438 236.175781 76.800781 232.125 77.023438 227.925781 C 77.324219 222.601562 80.851562 213 82.574219 210.074219 C 83.175781 208.949219 83.625 208.5 84.449219 208.050781 C 85.351562 207.601562 86.773438 207.226562 87.824219 207.375 C 88.875 207.601562 90.148438 208.273438 90.824219 209.101562 C 91.5 209.925781 91.949219 210.976562 91.875 212.398438 C 91.800781 215.25 87.523438 220.875 86.699219 224.851562 C 85.949219 228.226562 87.226562 232.351562 86.550781 234.601562 C 86.175781 235.949219 85.574219 236.925781 84.675781 237.523438 C 83.550781 238.199219 81.449219 238.574219 80.175781 238.125 C 78.898438 237.675781 77.625 236.175781 77.101562 234.824219 C 76.5 233.324219 76.726562 231.601562 77.023438 229.5 C 77.398438 226.5 78.824219 222.523438 80.324219 218.625 C 82.050781 213.824219 84.675781 207.976562 87.226562 203.175781 C 89.550781 198.675781 93 192.675781 94.875 190.726562 C 95.625 189.976562 96.074219 189.675781 96.898438 189.449219 C 97.800781 189.226562 99.375 189.300781 100.351562 189.601562 C 101.101562 189.898438 101.699219 190.351562 102.226562 191.023438 C 102.75 191.773438 103.425781 192.898438 103.273438 194.25 C 103.125 197.023438 99.449219 202.5 96.976562 206.101562 C 94.648438 209.550781 91.574219 214.199219 89.023438 215.476562 C 87.449219 216.226562 85.726562 216.226562 84.449219 215.773438 C 83.398438 215.398438 82.5 214.351562 81.976562 213.375 C 81.523438 212.398438 81.601562 211.199219 81.75 209.925781 C 81.976562 208.273438 82.5 206.550781 83.699219 204.226562 C 86.023438 199.574219 93.375 191.324219 96.898438 185.324219 C 99.898438 180.300781 104.550781 171.75 104.101562 170.925781 C 104.023438 170.773438 103.574219 171 103.5 170.851562 C 103.273438 170.550781 103.800781 168.675781 104.476562 167.925781 C 105.375 166.949219 107.324219 165.898438 108.675781 165.976562 C 109.949219 166.125 111.824219 167.25 112.574219 168.375 C 113.25 169.5 113.324219 171.75 112.800781 172.949219 C 112.199219 174.148438 110.476562 175.5 109.125 175.726562 C 107.773438 175.875 105.75 175.199219 104.773438 174.226562 C 103.875 173.25 103.425781 171.074219 103.574219 169.800781 C 103.726562 168.75 104.476562 167.773438 105.226562 167.175781 C 105.976562 166.5 107.101562 165.976562 108.148438 165.976562 C 109.351562 166.050781 111.375 167.023438 112.273438 167.925781 C 112.949219 168.75 113.101562 169.800781 113.25 170.925781 C 113.324219 172.199219 113.101562 173.550781 112.648438 175.351562 C 111.75 178.125 110.023438 181.726562 107.699219 185.699219 C 104.25 191.773438 95.398438 202.648438 92.773438 207.824219 C 91.5 210.300781 91.648438 212.398438 90.601562 213.824219 C 89.925781 214.800781 88.949219 215.625 87.976562 216 C 86.925781 216.300781 85.5 216.226562 84.449219 215.773438 C 83.476562 215.398438 82.5 214.351562 81.976562 213.375 C 81.523438 212.398438 81.300781 211.5 81.75 209.925781 C 82.875 205.875 91.949219 192.226562 95.773438 189.976562 C 97.5 189.074219 99.074219 189.074219 100.351562 189.601562 C 101.550781 190.125 102.898438 191.851562 103.199219 193.125 C 103.5 194.175781 103.199219 195.074219 102.675781 196.5 C 101.625 199.273438 97.726562 203.925781 95.550781 208.050781 C 93.226562 212.550781 90.675781 219.074219 89.25 222.523438 C 88.425781 224.476562 87.824219 225.375 87.375 227.101562 C 86.851562 229.273438 87.074219 232.875 86.550781 234.601562 C 86.324219 235.574219 86.175781 236.101562 85.5 236.699219 C 84.675781 237.523438 82.648438 238.5 81.300781 238.351562 C 80.023438 238.273438 78.375 237.300781 77.550781 235.875 C 76.273438 233.699219 76.574219 228.375 76.800781 225.375 C 76.949219 223.199219 77.476562 221.476562 78 219.675781 C 78.523438 217.949219 79.125 216.449219 80.023438 214.726562 C 81.148438 212.625 82.648438 209.101562 84.449219 208.050781 C 85.726562 207.300781 87.675781 207.226562 88.949219 207.75 C 90.148438 208.273438 91.425781 209.625 91.800781 211.199219 C 92.476562 213.75 90.824219 219.449219 89.625 222.148438 C 88.875 224.023438 87.148438 224.925781 86.699219 226.5 C 86.324219 228 86.773438 229.726562 87.148438 231.375 C 87.601562 233.175781 88.351562 235.199219 89.25 236.699219 C 90.148438 238.125 91.800781 239.023438 92.398438 240.226562 C 92.851562 241.351562 93 242.699219 92.851562 243.675781 C 92.773438 244.5 92.398438 245.175781 91.875 245.773438 C 91.199219 246.449219 89.925781 247.351562 88.800781 247.425781 C 87.523438 247.574219 84.523438 245.925781 84.523438 245.925781 " clip-rule="nonzero"/></clipPath><clipPath id="56de246f3a"><path d="M 88.324219 167.75 L 108.730469 167.75 L 108.730469 200.867188 L 88.324219 200.867188 Z M 88.324219 167.75 " clip-rule="nonzero"/></clipPath><clipPath id="551c5f5dbc"><path d="M 108.375 174.601562 C 95.101562 200.625 93.523438 200.925781 92.25 200.699219 C 90.898438 200.398438 89.175781 199.050781 88.726562 197.773438 C 88.199219 196.574219 88.351562 194.324219 89.101562 193.199219 C 89.851562 192.074219 91.726562 191.023438 93.074219 191.023438 C 94.425781 190.949219 96.375 192 97.125 193.050781 C 97.949219 194.175781 98.101562 196.351562 97.726562 197.625 C 97.425781 198.601562 96.601562 199.5 95.773438 200.023438 C 94.949219 200.550781 93.75 200.925781 92.773438 200.773438 C 91.5 200.550781 89.625 199.273438 88.949219 198.226562 C 88.351562 197.398438 88.273438 196.351562 88.351562 195.226562 C 88.5 193.5 89.625 191.699219 90.75 189.148438 C 92.925781 184.351562 97.875 171.449219 100.875 168.898438 C 102 167.851562 103.125 167.773438 104.101562 167.773438 C 104.925781 167.773438 105.675781 168 106.351562 168.449219 C 107.175781 169.050781 108.226562 170.101562 108.523438 171.148438 C 108.898438 172.199219 108.375 174.601562 108.375 174.601562 " clip-rule="nonzero"/></clipPath><clipPath id="eda0d3a51e"><path d="M 104.53125 169.589844 L 147.441406 169.589844 L 147.441406 194 L 104.53125 194 Z M 104.53125 169.589844 " clip-rule="nonzero"/></clipPath><clipPath id="714b34f8d9"><path d="M 109.574219 170.175781 C 121.574219 172.125 128.773438 171.75 133.800781 171.375 C 137.925781 171.074219 142.800781 168.75 144.976562 170.023438 C 146.625 170.925781 147.449219 173.699219 147.375 175.425781 C 147.300781 177 146.023438 178.125 144.75 179.925781 C 142.574219 183 136.800781 192.375 134.851562 191.851562 C 133.199219 191.398438 132.074219 182.851562 132.898438 180.148438 C 133.425781 178.351562 135.226562 177.300781 136.425781 176.476562 C 137.476562 175.726562 138.601562 175.050781 139.726562 174.898438 C 140.851562 174.824219 142.199219 175.199219 143.023438 175.875 C 143.925781 176.476562 144.75 177.675781 144.898438 178.800781 C 145.125 180.074219 144.449219 181.800781 143.699219 183.148438 C 142.800781 184.648438 141 186.226562 139.726562 187.199219 C 138.824219 187.875 138 188.476562 136.949219 188.550781 C 135.675781 188.550781 133.574219 187.800781 132.675781 186.898438 C 131.925781 186.148438 131.550781 185.023438 131.476562 184.050781 C 131.398438 183 131.625 181.800781 132.300781 180.976562 C 133.050781 180 134.925781 178.800781 136.273438 178.800781 C 137.625 178.800781 139.574219 179.773438 140.324219 180.898438 C 141.074219 181.949219 141.375 184.125 140.925781 185.398438 C 140.398438 186.675781 138.75 188.101562 137.476562 188.398438 C 136.125 188.699219 134.023438 188.023438 133.050781 187.273438 C 132.226562 186.601562 131.699219 185.476562 131.550781 184.574219 C 131.398438 183.601562 131.476562 182.550781 132 181.425781 C 132.824219 179.699219 135.976562 176.699219 137.550781 175.726562 C 138.375 175.125 138.898438 174.976562 139.726562 174.898438 C 140.699219 174.898438 142.199219 175.199219 143.023438 175.875 C 143.925781 176.476562 144.75 177.675781 144.898438 178.800781 C 145.125 180.074219 144.375 182.101562 143.699219 183.148438 C 143.101562 183.976562 142.125 184.050781 141.449219 184.875 C 140.476562 185.925781 139.875 187.875 138.675781 189.300781 C 137.324219 190.875 135.375 193.273438 133.5 193.800781 C 131.773438 194.25 128.925781 193.949219 128.023438 192.675781 C 126.898438 191.25 127.351562 187.273438 128.476562 184.425781 C 130.125 180.449219 136.574219 172.125 139.5 172.199219 C 141.601562 172.273438 145.050781 177 144.675781 178.425781 C 144.375 179.625 141.824219 180.074219 139.425781 180.523438 C 134.550781 181.574219 122.324219 181.5 116.550781 181.125 C 112.875 180.824219 109.800781 180.601562 107.773438 179.699219 C 106.5 179.101562 105.601562 178.5 105.074219 177.523438 C 104.476562 176.398438 104.398438 174.226562 104.851562 173.023438 C 105.226562 171.976562 106.425781 171 107.324219 170.550781 C 108 170.175781 109.574219 170.175781 109.574219 170.175781 " clip-rule="nonzero"/></clipPath><clipPath id="7b152eaad5"><path d="M 103.144531 161.792969 L 135.628906 161.792969 L 135.628906 181 L 103.144531 181 Z M 103.144531 161.792969 " clip-rule="nonzero"/></clipPath><clipPath id="03184370ea"><path d="M 129.449219 180.976562 C 107.773438 172.199219 106.050781 171.523438 104.925781 170.398438 C 104.023438 169.574219 103.5 168.675781 103.273438 167.699219 C 103.125 166.800781 103.199219 165.523438 103.648438 164.625 C 104.101562 163.726562 104.925781 162.824219 105.824219 162.375 C 106.648438 161.925781 107.925781 161.773438 108.898438 161.925781 C 109.875 162.074219 111 162.523438 111.601562 163.351562 C 112.425781 164.398438 113.023438 166.5 112.800781 167.773438 C 112.648438 168.824219 112.050781 169.800781 111.226562 170.476562 C 110.175781 171.148438 108 171.675781 106.726562 171.375 C 105.675781 171.226562 104.773438 170.398438 104.175781 169.648438 C 103.574219 168.824219 103.199219 167.699219 103.199219 166.648438 C 103.199219 165.675781 103.5 164.550781 104.175781 163.726562 C 105.074219 162.824219 106.351562 161.851562 108.375 161.851562 C 113.25 161.773438 130.648438 169.574219 134.023438 172.648438 C 135.148438 173.773438 135.449219 174.675781 135.523438 175.726562 C 135.675781 176.851562 135.148438 178.273438 134.625 179.101562 C 134.25 179.773438 133.648438 180.300781 132.898438 180.601562 C 131.925781 180.976562 129.449219 180.976562 129.449219 180.976562 " clip-rule="nonzero"/></clipPath><clipPath id="34560cc50f"><path d="M 118.296875 168.023438 L 150.175781 168.023438 L 150.175781 179.746094 L 118.296875 179.746094 Z M 118.296875 168.023438 " clip-rule="nonzero"/></clipPath><clipPath id="79a15f0654"><path d="M 123.523438 169.574219 C 136.125 169.648438 142.5 167.851562 145.273438 168.074219 C 146.625 168.226562 147.449219 168.375 148.199219 169.050781 C 149.175781 169.949219 150.074219 171.976562 150.148438 173.25 C 150.148438 174.300781 149.625 175.351562 149.023438 176.101562 C 148.351562 176.851562 147.375 177.601562 146.324219 177.75 C 145.050781 177.898438 142.875 177.449219 141.898438 176.476562 C 140.925781 175.574219 140.324219 173.398438 140.476562 172.199219 C 140.550781 171.148438 141.226562 170.101562 141.898438 169.425781 C 142.648438 168.75 143.699219 168.148438 144.75 168.148438 C 146.023438 168.074219 148.125 168.898438 149.023438 169.800781 C 149.699219 170.550781 150.074219 171.75 150.148438 172.726562 C 150.226562 173.699219 149.851562 174.898438 149.324219 175.726562 C 148.726562 176.476562 147.824219 177.226562 146.851562 177.601562 C 145.648438 177.976562 144.074219 177.300781 142.574219 177.523438 C 140.773438 177.75 138.898438 178.800781 137.023438 179.175781 C 135.148438 179.550781 133.5 179.550781 131.398438 179.625 C 128.925781 179.699219 125.101562 179.773438 123 179.324219 C 121.648438 179.023438 120.601562 178.648438 119.851562 177.898438 C 119.023438 177.148438 118.425781 175.875 118.351562 174.75 C 118.351562 173.476562 119.25 171.523438 120.226562 170.625 C 121.050781 169.875 123.523438 169.574219 123.523438 169.574219 " clip-rule="nonzero"/></clipPath></defs><path fill="#ffffff" d="M 139.109375 110.210938 C 138.207031 110.210938 137.71875 110.421875 137.65625 110.582031 C 137.648438 110.589844 137.46875 111.078125 138.644531 112.507812 C 140.953125 115.304688 143.90625 117.933594 147.421875 120.316406 C 152.789062 123.960938 158.648438 126.78125 164.839844 128.703125 C 166.621094 129.253906 168.203125 129.234375 168.515625 128.664062 C 168.792969 128.160156 168.296875 127.03125 167.257812 125.769531 C 160.535156 117.664062 150.71875 112.027344 140.324219 110.320312 C 139.859375 110.242188 139.457031 110.210938 139.109375 110.210938 Z M 167.136719 133.210938 C 166.0625 133.210938 164.886719 133.019531 163.628906 132.628906 C 157.042969 130.589844 150.816406 127.589844 145.109375 123.714844 C 141.273438 121.113281 138.035156 118.222656 135.472656 115.125 C 133.640625 112.902344 133.09375 110.839844 133.851562 109.007812 C 134.816406 106.675781 137.425781 105.671875 140.996094 106.265625 C 152.351562 108.132812 163.082031 114.289062 170.425781 123.148438 C 173.308594 126.640625 172.945312 129.144531 172.128906 130.636719 C 171.195312 132.332031 169.421875 133.210938 167.136719 133.210938 " fill-opacity="1" fill-rule="nonzero"/><path fill="#ffffff" d="M 166.511719 144.421875 C 166.121094 144.421875 165.726562 144.40625 165.335938 144.371094 C 156.148438 143.574219 147.578125 140.28125 140.554688 134.855469 C 139.65625 134.164062 139.488281 132.871094 140.179688 131.972656 C 140.882812 131.070312 142.167969 130.90625 143.066406 131.597656 C 149.464844 136.546875 157.292969 139.546875 165.695312 140.28125 C 169.160156 140.574219 172.601562 138.921875 174.640625 135.96875 C 178.007812 131.089844 177.253906 125.777344 172.421875 120.1875 C 162.527344 108.71875 153.1875 103.609375 139.113281 101.945312 C 133.691406 101.296875 129.785156 105.621094 127.464844 109.359375 C 125.648438 112.296875 126.058594 116.359375 128.472656 119.238281 C 130.023438 121.085938 131.765625 122.785156 133.632812 124.273438 C 134.519531 124.980469 134.667969 126.273438 133.957031 127.164062 C 133.25 128.050781 131.957031 128.199219 131.070312 127.488281 C 128.980469 125.824219 127.046875 123.941406 125.320312 121.871094 C 121.726562 117.585938 121.1875 111.6875 123.976562 107.1875 C 128.203125 100.386719 133.609375 97.160156 139.597656 97.867188 C 154.613281 99.632812 165.027344 105.324219 175.539062 117.5 C 181.574219 124.484375 182.460938 131.875 178.027344 138.300781 C 175.378906 142.148438 171.042969 144.421875 166.511719 144.421875 " fill-opacity="1" fill-rule="nonzero"/><g clip-path="url(#ce79d05709)"><path fill="#ffffff" d="M 97.183594 252.816406 C 92.871094 252.816406 88.507812 251.589844 84.796875 249.144531 C 78.105469 244.714844 73.847656 236.464844 73.957031 228.132812 C 74.066406 219.984375 77.886719 212.601562 81.261719 206.085938 L 106.203125 157.8125 C 106.222656 157.769531 106.242188 157.730469 106.261719 157.691406 L 125.628906 120.246094 C 126.148438 119.238281 127.394531 118.839844 128.398438 119.367188 C 129.414062 119.886719 129.804688 121.125 129.285156 122.132812 L 109.96875 159.476562 C 109.957031 159.515625 109.9375 159.550781 109.917969 159.59375 L 84.917969 207.96875 C 81.75 214.085938 78.164062 221.011719 78.066406 228.191406 C 77.976562 235.160156 81.511719 242.035156 87.0625 245.710938 C 92.769531 249.46875 100.652344 249.675781 106.230469 246.21875 C 111.632812 242.859375 114.8125 236.644531 117.621094 231.160156 C 125.6875 215.378906 133.757812 199.605469 141.828125 183.824219 L 150.441406 166.988281 C 150.460938 166.949219 150.480469 166.917969 150.5 166.886719 C 150.859375 166.148438 151.246094 165.414062 151.625 164.675781 C 151.644531 164.644531 151.65625 164.597656 151.675781 164.566406 C 155.628906 156.832031 159.574219 149.113281 163.539062 141.382812 C 164.050781 140.371094 165.292969 139.972656 166.300781 140.492188 C 167.316406 141.003906 167.714844 142.246094 167.191406 143.253906 C 163.253906 150.945312 159.328125 158.625 155.402344 166.320312 C 155.378906 166.367188 155.359375 166.417969 155.332031 166.460938 C 154.921875 167.246094 154.515625 168.035156 154.125 168.820312 C 154.097656 168.878906 154.074219 168.921875 154.039062 168.976562 L 145.488281 185.699219 C 137.417969 201.472656 129.347656 217.253906 121.285156 233.027344 C 118.378906 238.695312 114.777344 245.75 108.394531 249.707031 C 105.054688 251.789062 101.136719 252.816406 97.183594 252.816406 " fill-opacity="1" fill-rule="nonzero"/></g><path fill="#ffffff" d="M 153.507812 167.566406 C 153.488281 167.566406 153.460938 167.566406 153.4375 167.566406 C 152.332031 167.527344 151.453125 166.628906 151.453125 165.523438 L 151.453125 165.5 C 151.597656 163.476562 149.183594 161.535156 146.882812 160.339844 C 137.207031 155.351562 125.511719 153.835938 114.8125 156.183594 C 112.824219 156.625 111.332031 157.304688 110.613281 158.109375 C 109.855469 158.957031 108.550781 159.027344 107.707031 158.269531 C 106.859375 157.511719 106.789062 156.214844 107.546875 155.367188 C 108.871094 153.886719 111.015625 152.808594 113.925781 152.167969 C 125.550781 149.617188 138.253906 151.265625 148.773438 156.691406 C 153.332031 159.054688 155.808594 162.316406 155.5625 165.652344 C 155.480469 166.726562 154.585938 167.566406 153.507812 167.566406 " fill-opacity="1" fill-rule="nonzero"/><path fill="#ffffff" d="M 138.792969 172.089844 C 130.066406 172.089844 121.355469 170.453125 113.234375 167.246094 C 111.640625 166.617188 109.828125 165.828125 108.371094 164.476562 C 106.53125 162.753906 105.671875 160.460938 106.058594 158.328125 C 106.0625 158.300781 106.070312 158.277344 106.074219 158.246094 C 106.152344 157.839844 106.359375 157.453125 106.648438 157.160156 C 107.449219 156.355469 108.753906 156.355469 109.558594 157.160156 C 110.085938 157.691406 110.265625 158.445312 110.09375 159.117188 C 109.988281 159.839844 110.40625 160.75 111.171875 161.464844 C 112.101562 162.324219 113.453125 162.910156 114.75 163.429688 C 124.5625 167.296875 135.296875 168.742188 145.808594 167.601562 C 147.492188 167.425781 149.769531 167.183594 150.878906 166.40625 C 151.246094 166.058594 151.742188 165.84375 152.28125 165.84375 C 153.417969 165.84375 154.335938 166.765625 154.335938 167.902344 C 154.335938 168.558594 154.027344 169.148438 153.550781 169.527344 C 151.554688 171.128906 148.488281 171.453125 146.246094 171.691406 C 143.773438 171.960938 141.285156 172.089844 138.792969 172.089844 " fill-opacity="1" fill-rule="nonzero"/><path fill="#ffffff" d="M 126.824219 183.058594 C 126.238281 183.058594 125.648438 183.265625 125.25 183.648438 C 124.53125 184.371094 124.433594 185.75 125.054688 186.554688 C 125.671875 187.355469 127.035156 187.621094 127.910156 187.113281 C 128.359375 186.851562 129.054688 186.054688 129.109375 185.179688 C 129.125 184.953125 129.175781 184.28125 128.160156 183.484375 C 127.792969 183.199219 127.3125 183.058594 126.824219 183.058594 Z M 126.886719 191.484375 C 124.945312 191.484375 123 190.628906 121.796875 189.058594 C 119.921875 186.632812 120.171875 182.886719 122.359375 180.726562 C 124.542969 178.566406 128.289062 178.355469 130.699219 180.25 C 132.453125 181.632812 133.34375 183.476562 133.214844 185.457031 C 133.054688 187.839844 131.480469 189.785156 129.996094 190.660156 C 129.046875 191.210938 127.96875 191.484375 126.886719 191.484375 " fill-opacity="1" fill-rule="nonzero"/><path fill="#ffffff" d="M 108.234375 195.351562 C 107.125 195.351562 105.953125 195.972656 105.464844 196.957031 C 104.808594 198.273438 105.394531 200.222656 106.679688 200.964844 C 107.972656 201.722656 109.964844 201.292969 110.851562 200.066406 C 111.242188 199.539062 111.5625 198.628906 111.3125 197.664062 C 111.082031 196.777344 110.414062 196.078125 109.328125 195.582031 C 108.988281 195.421875 108.613281 195.351562 108.234375 195.351562 Z M 108.175781 205.464844 C 106.9375 205.464844 105.695312 205.15625 104.605469 204.519531 C 101.449219 202.675781 100.160156 198.371094 101.785156 195.117188 C 103.441406 191.796875 107.6875 190.300781 111.042969 191.84375 C 113.238281 192.851562 114.75 194.554688 115.289062 196.621094 C 115.808594 198.621094 115.398438 200.8125 114.179688 202.488281 C 112.785156 204.410156 110.476562 205.464844 108.175781 205.464844 " fill-opacity="1" fill-rule="nonzero"/><path fill="#ffffff" d="M 98.101562 221.1875 C 96.039062 221.1875 93.996094 222.746094 93.476562 224.746094 C 92.949219 226.800781 94.066406 229.261719 95.96875 230.21875 C 97.390625 230.933594 99.257812 230.855469 100.613281 230.035156 C 101.578125 229.441406 103.144531 228.023438 102.722656 225.1875 C 102.414062 223.082031 100.429688 221.289062 98.296875 221.191406 C 98.230469 221.1875 98.167969 221.1875 98.101562 221.1875 Z M 98.109375 234.8125 C 96.734375 234.8125 95.351562 234.511719 94.125 233.894531 C 90.460938 232.050781 88.476562 227.675781 89.5 223.71875 C 90.507812 219.796875 94.453125 216.914062 98.496094 217.082031 C 102.546875 217.273438 106.199219 220.570312 106.789062 224.585938 C 107.34375 228.3125 105.839844 231.660156 102.761719 233.542969 C 101.371094 234.390625 99.742188 234.8125 98.109375 234.8125 " fill-opacity="1" fill-rule="nonzero"/><path fill="#ffffff" d="M 158.621094 69.152344 C 158.441406 69.152344 158.261719 69.164062 158.082031 69.195312 C 156.25 69.5 154.726562 71.394531 154.824219 73.25 C 154.921875 75.101562 156.628906 76.828125 158.488281 76.9375 C 159.535156 77.011719 161.121094 76.476562 162 75.378906 C 162.714844 74.496094 162.867188 73.386719 162.46875 71.980469 C 162.015625 70.371094 160.300781 69.152344 158.621094 69.152344 Z M 158.632812 81.058594 C 158.5 81.058594 158.363281 81.050781 158.238281 81.046875 C 154.296875 80.808594 150.917969 77.410156 150.710938 73.464844 C 150.511719 69.519531 153.515625 65.785156 157.40625 65.140625 C 161.300781 64.5 165.347656 67.0625 166.429688 70.859375 C 167.179688 73.519531 166.75 76.039062 165.207031 77.960938 C 163.460938 80.125 160.730469 81.058594 158.632812 81.058594 " fill-opacity="1" fill-rule="nonzero"/><path fill="#ffffff" d="M 184.578125 97.09375 L 184.597656 97.09375 Z M 177.917969 91.742188 C 175.558594 91.742188 173.246094 93.753906 172.949219 96.136719 C 172.648438 98.617188 174.550781 101.316406 177.03125 101.90625 C 178.230469 102.191406 179.40625 101.984375 180.34375 101.324219 C 181.554688 100.46875 182.3125 98.933594 182.535156 96.871094 C 182.664062 95.746094 182.261719 94.53125 181.4375 93.527344 C 180.582031 92.5 179.421875 91.851562 178.246094 91.757812 C 178.136719 91.742188 178.027344 91.742188 177.917969 91.742188 Z M 178.050781 106.140625 C 177.394531 106.140625 176.734375 106.066406 176.078125 105.90625 C 171.542969 104.824219 168.304688 100.21875 168.871094 95.636719 C 169.449219 90.925781 173.894531 87.269531 178.578125 87.65625 C 180.851562 87.84375 183.050781 89.03125 184.605469 90.914062 C 186.136719 92.765625 186.875 95.101562 186.625 97.320312 C 186.167969 101.453125 184.246094 103.605469 182.714844 104.683594 C 181.355469 105.640625 179.730469 106.140625 178.050781 106.140625 " fill-opacity="1" fill-rule="nonzero"/><path fill="#ffffff" d="M 215.175781 107.933594 C 214.675781 107.933594 214.175781 108 213.6875 108.128906 C 210.503906 108.949219 208.210938 112.515625 208.785156 115.746094 C 209.347656 118.992188 212.714844 121.550781 215.992188 121.246094 C 217.65625 121.09375 219.90625 120.039062 221.199219 118.035156 C 222.246094 116.402344 222.410156 114.507812 221.679688 112.40625 C 221.679688 112.398438 221.679688 112.398438 221.679688 112.398438 C 220.765625 109.773438 217.953125 107.933594 215.175781 107.933594 Z M 215.464844 125.386719 C 210.410156 125.386719 205.609375 121.484375 204.730469 116.460938 C 203.792969 111.140625 207.421875 105.5 212.652344 104.144531 C 217.875 102.789062 223.792969 105.949219 225.566406 111.058594 C 227.019531 115.234375 225.867188 118.371094 224.652344 120.265625 C 222.867188 123.039062 219.617188 125.039062 216.378906 125.339844 C 216.078125 125.371094 215.769531 125.386719 215.464844 125.386719 " fill-opacity="1" fill-rule="nonzero"/><path fill="#ffffff" d="M 241.289062 80.949219 C 240.492188 80.949219 239.726562 81.128906 239.066406 81.476562 C 237.949219 82.066406 237.0625 83.191406 236.636719 84.566406 C 236.214844 85.941406 236.316406 87.375 236.90625 88.492188 C 237.503906 89.609375 238.636719 90.496094 240.011719 90.914062 C 241.386719 91.332031 242.8125 91.230469 243.9375 90.632812 C 245.414062 89.839844 247.882812 87.089844 246.082031 83.648438 C 245.492188 82.523438 244.367188 81.636719 242.992188 81.210938 C 242.425781 81.039062 241.847656 80.949219 241.289062 80.949219 Z M 241.679688 95.277344 C 240.722656 95.277344 239.753906 95.136719 238.808594 94.847656 C 236.398438 94.109375 234.382812 92.5 233.277344 90.417969 C 232.171875 88.34375 231.964844 85.765625 232.707031 83.359375 C 233.449219 80.949219 235.070312 78.9375 237.152344 77.839844 C 239.226562 76.738281 241.804688 76.535156 244.210938 77.285156 C 246.621094 78.03125 248.625 79.652344 249.71875 81.738281 C 252.675781 87.375 249.25 92.449219 245.871094 94.253906 C 244.609375 94.929688 243.160156 95.277344 241.679688 95.277344 " fill-opacity="1" fill-rule="nonzero"/><path fill="#ffffff" d="M 243.558594 110.699219 C 243.53125 110.699219 243.507812 110.699219 243.480469 110.699219 C 242.425781 110.71875 241.515625 111.152344 241.039062 111.859375 C 240.570312 112.566406 240.511719 113.574219 240.898438 114.558594 C 241.277344 115.542969 242.003906 116.25 242.824219 116.449219 C 243.710938 116.667969 245.425781 115.964844 246.222656 114.769531 C 246.847656 113.839844 246.761719 112.863281 245.96875 111.765625 C 245.480469 111.097656 244.578125 110.699219 243.558594 110.699219 Z M 243.160156 120.597656 C 242.714844 120.597656 242.273438 120.546875 241.855469 120.449219 C 239.722656 119.929688 237.933594 118.285156 237.0625 116.050781 C 236.195312 113.820312 236.40625 111.398438 237.625 109.574219 C 238.847656 107.75 241.007812 106.628906 243.402344 106.585938 C 245.773438 106.488281 247.996094 107.574219 249.289062 109.347656 C 251.113281 111.855469 251.242188 114.660156 249.640625 117.058594 C 248.210938 119.203125 245.550781 120.597656 243.160156 120.597656 " fill-opacity="1" fill-rule="nonzero"/><path fill="#ffffff" d="M 221.902344 156.824219 C 220.316406 156.824219 218.648438 156.644531 217.054688 155.988281 C 214.085938 154.773438 211.519531 151.441406 212.375 147.976562 C 213.089844 145.085938 215.714844 143.484375 217.933594 142.414062 C 229.738281 136.695312 242.890625 134.046875 255.996094 134.765625 C 261.066406 135.042969 264.324219 137.097656 264.929688 140.394531 C 265.5 143.519531 263.457031 146.472656 259.183594 148.714844 C 251.910156 152.527344 244.105469 155.109375 235.980469 156.394531 C 234.859375 156.574219 233.808594 155.804688 233.628906 154.679688 C 233.457031 153.558594 234.222656 152.507812 235.339844 152.332031 C 243.019531 151.117188 250.398438 148.675781 257.273438 145.074219 C 258.199219 144.585938 261.203125 142.867188 260.878906 141.132812 C 260.609375 139.65625 257.960938 138.996094 255.773438 138.871094 C 243.363281 138.199219 230.90625 140.695312 219.726562 146.113281 C 218.320312 146.792969 216.667969 147.734375 216.367188 148.960938 C 216.0625 150.195312 217.308594 151.652344 218.613281 152.183594 C 220.421875 152.917969 222.726562 152.726562 224.769531 152.550781 C 225.882812 152.46875 226.898438 153.289062 226.992188 154.421875 C 227.089844 155.550781 226.253906 156.546875 225.117188 156.644531 C 224.128906 156.734375 223.035156 156.824219 221.902344 156.824219 " fill-opacity="1" fill-rule="nonzero"/><path fill="#ffffff" d="M 251.949219 131.167969 C 239.695312 131.167969 227.4375 134.035156 216.101562 139.578125 C 213.507812 140.851562 210.820312 142.328125 208.808594 144.476562 C 207.050781 146.359375 206.144531 148.582031 206.117188 151.082031 C 206.109375 151.792969 206.234375 152.582031 206.496094 153.496094 L 207.191406 155.9375 C 208.148438 159.332031 210.890625 161.976562 214.347656 162.851562 C 228.289062 166.378906 255.085938 162.101562 266.476562 152.070312 C 270.191406 148.804688 271.839844 145.265625 271.390625 141.558594 C 271.390625 141.550781 271.390625 141.550781 271.390625 141.550781 L 271.371094 141.359375 C 270.910156 137.574219 268.4375 134.34375 264.910156 132.917969 C 263.019531 132.152344 261.046875 131.667969 259.054688 131.488281 C 256.691406 131.277344 254.320312 131.167969 251.949219 131.167969 Z M 225.855469 168.179688 C 221.199219 168.179688 216.890625 167.742188 213.339844 166.835938 C 208.460938 165.601562 204.589844 161.863281 203.234375 157.0625 L 202.539062 154.628906 C 202.164062 153.328125 201.992188 152.152344 202.003906 151.035156 C 202.039062 147.476562 203.324219 144.320312 205.808594 141.667969 C 208.28125 139.027344 211.484375 137.265625 214.296875 135.890625 C 228.496094 128.933594 244.105469 126.003906 259.429688 127.398438 C 261.824219 127.617188 264.1875 128.1875 266.449219 129.105469 C 271.359375 131.089844 274.808594 135.59375 275.453125 140.859375 L 275.476562 141.0625 C 276.089844 146.132812 273.917969 151.003906 269.195312 155.160156 C 259.570312 163.628906 240.847656 168.179688 225.855469 168.179688 " fill-opacity="1" fill-rule="nonzero"/><g clip-path="url(#9d582e9c77)"><path fill="#ffffff" d="M 267.542969 310.445312 C 260.082031 310.445312 253.042969 307.992188 248.066406 303.53125 C 240.203125 296.476562 237.792969 285.113281 236.035156 276.808594 C 228.164062 239.683594 220.277344 202.535156 212.394531 165.402344 C 212.15625 164.289062 212.863281 163.199219 213.976562 162.960938 C 215.082031 162.722656 216.179688 163.4375 216.417969 164.546875 C 224.300781 201.679688 232.183594 238.832031 240.054688 275.960938 C 242.183594 286 244.464844 294.773438 250.8125 300.46875 C 255.945312 305.0625 263.753906 307.144531 271.714844 306.039062 C 281.363281 304.703125 289.691406 298.785156 292.929688 290.972656 C 296.328125 282.8125 294.527344 273.597656 292.015625 263.273438 L 276.886719 200.914062 C 276.800781 200.601562 276.726562 200.265625 276.652344 199.925781 C 276.648438 199.90625 276.640625 199.878906 276.632812 199.859375 L 265.578125 154.332031 C 265.3125 153.226562 265.988281 152.113281 267.09375 151.84375 C 268.199219 151.574219 269.308594 152.257812 269.574219 153.363281 L 280.613281 198.828125 C 280.625 198.871094 280.636719 198.910156 280.644531 198.953125 C 280.722656 199.277344 280.792969 199.589844 280.875 199.914062 L 296.011719 262.300781 C 298.082031 270.820312 300.921875 282.484375 296.726562 292.550781 C 292.941406 301.683594 283.34375 308.578125 272.277344 310.113281 C 270.691406 310.332031 269.105469 310.445312 267.542969 310.445312 " fill-opacity="1" fill-rule="nonzero"/></g><path fill="#ffffff" d="M 276.929688 201.070312 Z M 251.273438 193.132812 C 244.515625 193.132812 237.988281 194.050781 231.910156 195.882812 C 229.917969 196.46875 227.878906 197.195312 226.390625 198.492188 C 225.257812 199.460938 224.269531 201.101562 224.597656 202.605469 C 224.808594 203.625 225.636719 204.640625 226.863281 205.394531 C 228.207031 206.222656 229.882812 206.683594 231.347656 207.050781 C 243.957031 210.25 256.40625 210.410156 267.371094 207.507812 C 269.347656 206.988281 271.617188 206.28125 273.453125 205.007812 C 275.144531 203.859375 277.046875 202.355469 276.871094 200.875 C 276.871094 200.863281 276.871094 200.851562 276.871094 200.851562 C 276.839844 200.691406 276.820312 200.535156 276.828125 200.375 C 276.769531 200.265625 276.71875 200.148438 276.679688 200.027344 C 276.261719 198.890625 275.296875 197.792969 274.03125 197.015625 C 272.4375 196.019531 270.550781 195.484375 268.191406 194.984375 C 262.480469 193.75 256.800781 193.132812 251.273438 193.132812 Z M 250.886719 213.6875 C 244.207031 213.6875 237.292969 212.800781 230.347656 211.039062 C 228.59375 210.605469 226.554688 210.03125 224.710938 208.902344 C 222.488281 207.53125 221.019531 205.605469 220.574219 203.460938 C 219.96875 200.652344 221.164062 197.554688 223.703125 195.375 C 225.777344 193.570312 228.417969 192.625 230.726562 191.9375 C 242.445312 188.417969 255.695312 188.078125 269.054688 190.960938 C 271.457031 191.476562 273.988281 192.136719 276.199219 193.519531 C 278.285156 194.804688 279.839844 196.640625 280.566406 198.683594 C 280.574219 198.703125 280.578125 198.730469 280.585938 198.75 C 280.65625 198.960938 280.695312 199.1875 280.695312 199.40625 C 280.695312 199.425781 280.695312 199.4375 280.695312 199.457031 C 280.753906 199.558594 280.796875 199.667969 280.835938 199.785156 C 280.882812 199.925781 280.933594 200.203125 280.953125 200.347656 C 281.445312 204.53125 277.484375 207.238281 275.785156 208.394531 C 273.433594 210.027344 270.742188 210.867188 268.417969 211.484375 C 262.871094 212.957031 256.972656 213.6875 250.886719 213.6875 " fill-opacity="1" fill-rule="nonzero"/><path fill="#ffffff" d="M 249.519531 230.875 C 247.328125 230.875 245.085938 232.355469 244.417969 234.449219 C 243.621094 236.933594 245.132812 240.011719 247.59375 240.898438 C 250.046875 241.792969 253.175781 240.390625 254.160156 237.96875 C 254.679688 236.671875 254.589844 235.019531 253.921875 233.664062 C 253.472656 232.746094 252.558594 231.542969 250.753906 231.035156 C 250.347656 230.925781 249.9375 230.875 249.519531 230.875 Z M 249.117188 245.269531 C 248.125 245.273438 247.136719 245.109375 246.191406 244.765625 C 241.707031 243.148438 239.046875 237.730469 240.5 233.1875 C 241.964844 228.644531 247.265625 225.78125 251.867188 227.078125 C 254.410156 227.796875 256.453125 229.488281 257.617188 231.851562 C 258.796875 234.261719 258.933594 237.121094 257.96875 239.511719 C 256.5625 243.007812 252.828125 245.269531 249.117188 245.269531 " fill-opacity="1" fill-rule="nonzero"/><path fill="#ffffff" d="M 274.40625 242.71875 C 274.21875 242.71875 274.03125 242.742188 273.859375 242.792969 C 272.816406 243.089844 272.035156 244.34375 272.214844 245.417969 C 272.402344 246.488281 273.542969 247.421875 274.644531 247.335938 C 275.277344 247.296875 276.199219 246.84375 276.628906 246.15625 C 276.96875 245.601562 276.976562 244.945312 276.648438 244.136719 C 276.300781 243.300781 275.324219 242.71875 274.40625 242.71875 Z M 274.535156 251.449219 C 271.496094 251.449219 268.6875 249.125 268.167969 246.117188 C 267.625 242.980469 269.667969 239.722656 272.722656 238.84375 C 275.765625 237.957031 279.242188 239.640625 280.453125 242.574219 C 281.285156 244.613281 281.164062 246.65625 280.109375 248.332031 C 278.859375 250.335938 276.589844 251.332031 274.898438 251.441406 C 274.777344 251.449219 274.65625 251.449219 274.535156 251.449219 " fill-opacity="1" fill-rule="nonzero"/><path fill="#ffffff" d="M 253.890625 261.863281 C 253.207031 261.863281 252.507812 262.117188 252.070312 262.605469 C 251.273438 263.503906 251.339844 265.160156 252.207031 266.015625 C 253.066406 266.863281 254.769531 266.914062 255.695312 266.113281 C 256.183594 265.695312 256.472656 265.066406 256.480469 264.429688 C 256.480469 263.703125 256.097656 262.988281 255.394531 262.371094 C 254.996094 262.027344 254.449219 261.863281 253.890625 261.863281 Z M 254.011719 270.816406 C 252.296875 270.816406 250.582031 270.183594 249.320312 268.945312 C 246.890625 266.554688 246.746094 262.40625 249 259.871094 C 251.273438 257.320312 255.519531 257.039062 258.085938 259.261719 C 258.085938 259.261719 258.085938 259.261719 258.085938 259.269531 C 259.703125 260.675781 260.597656 262.515625 260.589844 264.441406 C 260.585938 266.257812 259.753906 268.050781 258.375 269.234375 C 257.140625 270.289062 255.574219 270.816406 254.011719 270.816406 " fill-opacity="1" fill-rule="nonzero"/><path fill="#ffffff" d="M 273.203125 273.9375 C 272.925781 273.9375 272.644531 273.964844 272.367188 274.015625 C 270.589844 274.335938 269.027344 275.703125 268.472656 277.425781 C 267.921875 279.148438 268.402344 281.171875 269.664062 282.464844 C 271.1875 284.019531 273.847656 284.390625 275.714844 283.304688 C 276.800781 282.683594 278.042969 281.332031 278.351562 279.734375 C 278.601562 278.449219 278.214844 277.144531 277.207031 275.859375 C 276.269531 274.65625 274.734375 273.9375 273.203125 273.9375 Z M 273.320312 288.027344 C 270.882812 288.027344 268.449219 287.097656 266.726562 285.34375 C 264.386719 282.953125 263.539062 279.355469 264.554688 276.175781 C 265.578125 272.992188 268.359375 270.558594 271.640625 269.96875 C 274.933594 269.375 278.390625 270.691406 280.445312 273.320312 C 282.65625 276.140625 282.71875 278.796875 282.386719 280.515625 C 281.792969 283.582031 279.609375 285.804688 277.773438 286.871094 C 276.417969 287.648438 274.867188 288.027344 273.320312 288.027344 " fill-opacity="1" fill-rule="nonzero"/><g clip-path="url(#62da927f77)"><g clip-path="url(#d05fa2d60c)"><path fill="#ffffff" d="M 93.074219 183.75 L 128.773438 183.75 L 128.773438 235.207031 L 93.074219 235.207031 Z M 93.074219 183.75 " fill-opacity="1" fill-rule="nonzero"/></g></g><g clip-path="url(#e700bb6782)"><g clip-path="url(#da76f68646)"><path fill="#ffffff" d="M 84.601562 170.625 L 135.75 170.625 L 135.75 230.964844 L 84.601562 230.964844 Z M 84.601562 170.625 " fill-opacity="1" fill-rule="nonzero"/></g></g><g clip-path="url(#68bcb62307)"><g clip-path="url(#d9ddfb0d48)"><path fill="#ffffff" d="M 75.226562 170.925781 L 143.023438 170.925781 L 143.023438 251.4375 L 75.226562 251.4375 Z M 75.226562 170.925781 " fill-opacity="1" fill-rule="nonzero"/></g></g><g clip-path="url(#51a3768711)"><g clip-path="url(#e41edf8972)"><path fill="#ffffff" d="M 85.949219 203.101562 L 125.851562 203.101562 L 125.851562 246.585938 L 85.949219 246.585938 Z M 85.949219 203.101562 " fill-opacity="1" fill-rule="nonzero"/></g></g><g clip-path="url(#38b9780b77)"><g clip-path="url(#5ede1635ff)"><path fill="#ffffff" d="M 235.199219 211.648438 L 290.382812 211.648438 L 290.382812 262.648438 L 235.199219 262.648438 Z M 235.199219 211.648438 " fill-opacity="1" fill-rule="nonzero"/></g></g><g clip-path="url(#823f286a61)"><g clip-path="url(#fe3eeea881)"><path fill="#ffffff" d="M 245.25 225.75 L 300 225.75 L 300 306.589844 L 245.25 306.589844 Z M 245.25 225.75 " fill-opacity="1" fill-rule="nonzero"/></g></g><g clip-path="url(#12001d7c32)"><g clip-path="url(#3925f5986d)"><path fill="#ffffff" d="M 233.550781 230.851562 L 296.25 230.851562 L 296.25 308.734375 L 233.550781 308.734375 Z M 233.550781 230.851562 " fill-opacity="1" fill-rule="nonzero"/></g></g><g clip-path="url(#57fbc0efa3)"><g clip-path="url(#c4ce935660)"><path fill="#ffffff" d="M 238.648438 272.925781 L 294.773438 272.925781 L 294.773438 310.050781 L 238.648438 310.050781 Z M 238.648438 272.925781 " fill-opacity="1" fill-rule="nonzero"/></g></g><g clip-path="url(#ef3de2b903)"><g clip-path="url(#281d34497f)"><path fill="#ffffff" d="M 228 212.550781 L 284.101562 212.550781 L 284.101562 298.015625 L 228 298.015625 Z M 228 212.550781 " fill-opacity="1" fill-rule="nonzero"/></g></g><g clip-path="url(#622aaa1efa)"><g clip-path="url(#abd18506f0)"><path fill="#ffffff" d="M 225.824219 201.976562 L 288.578125 201.976562 L 288.578125 239.773438 L 225.824219 239.773438 Z M 225.824219 201.976562 " fill-opacity="1" fill-rule="nonzero"/></g></g><g clip-path="url(#184a155717)"><g clip-path="url(#6f7b92153f)"><path fill="#ffffff" d="M 220.5 204.675781 L 242.101562 204.675781 L 242.101562 239.773438 L 220.5 239.773438 Z M 220.5 204.675781 " fill-opacity="1" fill-rule="nonzero"/></g></g><g clip-path="url(#91b8ab7b5e)"><g clip-path="url(#29cecccef4)"><path fill="#ffffff" d="M 73.800781 162.976562 L 116.324219 162.976562 L 116.324219 250.351562 L 73.800781 250.351562 Z M 73.800781 162.976562 " fill-opacity="1" fill-rule="nonzero"/></g></g><g clip-path="url(#56de246f3a)"><g clip-path="url(#551c5f5dbc)"><path fill="#ffffff" d="M 85.351562 164.773438 L 111.601562 164.773438 L 111.601562 203.738281 L 85.351562 203.738281 Z M 85.351562 164.773438 " fill-opacity="1" fill-rule="nonzero"/></g></g><g clip-path="url(#eda0d3a51e)"><g clip-path="url(#714b34f8d9)"><path fill="#ffffff" d="M 101.851562 167.023438 L 150.472656 167.023438 L 150.472656 196.875 L 101.851562 196.875 Z M 101.851562 167.023438 " fill-opacity="1" fill-rule="nonzero"/></g></g><g clip-path="url(#7b152eaad5)"><g clip-path="url(#03184370ea)"><path fill="#ffffff" d="M 100.199219 158.851562 L 138.574219 158.851562 L 138.574219 183.976562 L 100.199219 183.976562 Z M 100.199219 158.851562 " fill-opacity="1" fill-rule="nonzero"/></g></g><g clip-path="url(#34560cc50f)"><g clip-path="url(#79a15f0654)"><path fill="#ffffff" d="M 115.351562 165.074219 L 153.125 165.074219 L 153.125 182.625 L 115.351562 182.625 Z M 115.351562 165.074219 " fill-opacity="1" fill-rule="nonzero"/></g></g></svg>