<svg xmlns="http://www.w3.org/2000/svg" xmlns:xlink="http://www.w3.org/1999/xlink" width="500" zoomAndPan="magnify" viewBox="0 0 375 374.999991" height="500" preserveAspectRatio="xMidYMid meet" version="1.0"><defs><filter x="0%" y="0%" width="100%" height="100%" id="c286a17a07"><feColorMatrix values="0 0 0 0 1 0 0 0 0 1 0 0 0 0 1 0 0 0 1 0" color-interpolation-filters="sRGB"/></filter><g/><mask id="367d531257"><g filter="url(#c286a17a07)"><rect x="-37.5" width="450" fill="#000000" y="-37.499999" height="449.999989" fill-opacity="0.42"/></g></mask><clipPath id="d2fc554c7d"><rect x="0" width="310" y="0" height="375"/></clipPath></defs><g mask="url(#367d531257)"><g transform="matrix(1, 0, 0, 1, 37, 0)"><g clip-path="url(#d2fc554c7d)"><g fill="#293241" fill-opacity="1"><g transform="translate(50.240931, 211.326265)"><g><path d="M 79.015625 -67.4375 C 83.929688 -67.4375 88.070312 -69.488281 91.4375 -73.59375 C 94.800781 -77.695312 97.59375 -82.703125 99.8125 -88.609375 C 102.03125 -94.515625 103.628906 -100.664062 104.609375 -107.0625 C 105.597656 -113.46875 106.09375 -119.050781 106.09375 -123.8125 C 106.09375 -128.238281 105.351562 -131.96875 103.875 -135 C 102.394531 -138.039062 99.191406 -139.5625 94.265625 -139.5625 L 83.203125 -139.5625 L 67.6875 -67.4375 Z M 64.25 -51.6875 L 53.171875 0 L 0 0 L 33.234375 -156.296875 L 90.09375 -156.296875 C 99.445312 -156.296875 107.976562 -155.800781 115.6875 -154.8125 C 123.394531 -153.832031 130.039062 -151.863281 135.625 -148.90625 C 141.207031 -145.957031 145.554688 -141.734375 148.671875 -136.234375 C 151.785156 -130.742188 153.34375 -123.398438 153.34375 -114.203125 C 153.34375 -105.671875 151.988281 -97.585938 149.28125 -89.953125 C 146.570312 -82.328125 142.222656 -75.679688 136.234375 -70.015625 C 130.242188 -64.359375 122.488281 -59.890625 112.96875 -56.609375 C 103.457031 -53.328125 91.890625 -51.6875 78.265625 -51.6875 Z M 64.25 -51.6875 "/></g></g></g><g fill="#293241" fill-opacity="1"><g transform="translate(148.68975, 211.326265)"><g><path d="M 136.359375 0 L 78.765625 0 L 75.3125 -39.140625 L 29.78125 -39.140625 L 12.3125 0 L -11.5625 0 L 61.046875 -156.296875 L 119.375 -156.296875 Z M 37.90625 -57.109375 L 73.59375 -57.109375 L 67.9375 -124.0625 Z M 37.90625 -57.109375 "/></g></g></g><g fill="#293241" fill-opacity="1"><g transform="translate(1.133083, 333.706675)"><g><path d="M 20.1875 -156.296875 L 76.296875 -156.296875 L 84.671875 -50.453125 L 135.875 -156.296875 L 160.234375 -156.296875 L 87.375 0 L 29.296875 0 Z M 20.1875 -156.296875 "/></g></g></g><g fill="#293241" fill-opacity="1"><g transform="translate(144.135466, 333.706675)"><g><path d="M 53.171875 0 L 0 0 L 33.234375 -156.296875 L 86.640625 -156.296875 Z M 53.171875 0 "/></g></g></g><g fill="#293241" fill-opacity="1"><g transform="translate(224.374319, 333.706675)"><g><path d="M 32.484375 -165.40625 L 82.703125 -165.40625 L 51.203125 -49.46875 L 16.25 -49.46875 Z M 5.171875 -16 C 5.171875 -19.445312 5.90625 -22.523438 7.375 -25.234375 C 8.851562 -27.941406 10.78125 -30.195312 13.15625 -32 C 15.539062 -33.800781 18.25 -35.148438 21.28125 -36.046875 C 24.320312 -36.953125 27.484375 -37.40625 30.765625 -37.40625 C 36.835938 -37.40625 41.960938 -35.925781 46.140625 -32.96875 C 50.328125 -30.019531 52.421875 -25.507812 52.421875 -19.4375 C 52.421875 -16 51.722656 -12.925781 50.328125 -10.21875 C 48.941406 -7.507812 47.054688 -5.25 44.671875 -3.4375 C 42.296875 -1.632812 39.585938 -0.285156 36.546875 0.609375 C 33.515625 1.515625 30.273438 1.96875 26.828125 1.96875 C 20.753906 1.96875 15.625 0.492188 11.4375 -2.453125 C 7.257812 -5.410156 5.171875 -9.925781 5.171875 -16 Z M 5.171875 -16 "/></g></g></g></g></g></g><path stroke-linecap="butt" transform="matrix(1.062456, 0, 0, 1.062456, -10.341158, 63.484325)" fill="none" stroke-linejoin="miter" d="M 154.967245 72.742044 C 159.518905 72.742044 163.34627 70.855936 166.453017 67.083721 C 169.559764 63.271062 172.129724 58.649546 174.166573 53.21182 C 176.199746 47.733651 177.663042 42.038561 178.549108 36.119197 C 179.475617 30.199833 179.935195 25.059913 179.935195 20.695761 C 179.935195 16.588972 179.251343 13.147653 177.883639 10.371802 C 176.552702 7.562861 173.611403 6.154715 169.059743 6.154715 L 158.79461 6.154715 L 144.481514 72.742044 Z M 141.315941 87.279414 L 131.105958 134.998311 L 82.000973 134.998311 L 112.686073 -9.323871 L 165.177228 -9.323871 C 173.832 -9.323871 181.711005 -8.864293 188.814241 -7.937784 C 195.954244 -7.051717 202.094206 -5.239142 207.237802 -2.500057 C 212.377722 0.239027 216.392595 4.139925 219.278744 9.206312 C 222.164894 14.276376 223.60613 21.04504 223.60613 29.515981 C 223.60613 37.394985 222.348725 44.869561 219.833915 51.932355 C 217.35587 58.962059 213.340997 65.10202 207.792972 70.355916 C 202.281714 75.573044 195.123327 79.698216 186.317814 82.731431 C 177.5123 85.764645 166.842739 87.279414 154.301776 87.279414 Z M 298.804112 134.998311 L 245.647489 134.998311 L 242.430443 98.875485 L 200.425019 98.875485 L 184.277288 134.998311 L 162.19181 134.998311 L 229.279161 -9.323871 L 283.156403 -9.323871 Z M 207.914301 82.286559 L 240.875231 82.286559 L 235.602953 20.471487 Z M 207.914301 82.286559 " stroke="#ffffff" stroke-width="13.921083" stroke-opacity="1" stroke-miterlimit="4"/><path stroke-linecap="butt" transform="matrix(1.062456, 0, 0, 1.062456, -10.341158, 63.484325)" fill="none" stroke-linejoin="miter" d="M 55.301333 103.673478 L 107.127019 103.673478 L 114.840575 201.39078 L 162.114601 103.673478 L 184.589801 103.673478 L 117.337002 247.999337 L 63.680358 247.999337 Z M 217.804418 247.999337 L 168.695757 247.999337 L 199.380858 103.673478 L 248.710116 103.673478 Z M 272.806707 95.239304 L 319.139518 95.239304 L 290.061102 202.331996 L 257.769317 202.331996 Z M 247.559333 233.24137 C 247.559333 230.057414 248.243185 227.230091 249.610889 224.752046 C 250.978593 222.233559 252.754402 220.145237 254.938317 218.479726 C 257.158997 216.77745 259.655425 215.520044 262.427599 214.707511 C 265.240216 213.854534 268.163132 213.431722 271.196346 213.431722 C 276.817903 213.431722 281.553395 214.799426 285.40282 217.538511 C 289.248568 220.273919 291.171442 224.435857 291.171442 230.020648 C 291.171442 233.204604 290.524356 236.050311 289.230185 238.568798 C 287.972779 241.083608 286.233736 243.17193 284.013056 244.837441 C 281.832818 246.502951 279.332714 247.741974 276.523774 248.554507 C 273.711157 249.407484 270.714708 249.830296 267.534429 249.830296 C 261.949638 249.830296 257.214147 248.462592 253.327955 245.723507 C 249.482207 242.988099 247.559333 238.826161 247.559333 233.24137 Z M 247.559333 233.24137 " stroke="#ffffff" stroke-width="13.921083" stroke-opacity="1" stroke-miterlimit="4"/><g fill="#293241" fill-opacity="1"><g transform="translate(76.780216, 206.915857)"><g><path d="M 77.515625 -66.15625 C 82.335938 -66.15625 86.398438 -68.164062 89.703125 -72.1875 C 93.003906 -76.21875 95.738281 -81.128906 97.90625 -86.921875 C 100.082031 -92.722656 101.65625 -98.757812 102.625 -105.03125 C 103.59375 -111.3125 104.078125 -116.785156 104.078125 -121.453125 C 104.078125 -125.804688 103.347656 -129.46875 101.890625 -132.4375 C 100.441406 -135.414062 97.304688 -136.90625 92.484375 -136.90625 L 81.609375 -136.90625 L 66.40625 -66.15625 Z M 63.015625 -50.703125 L 52.15625 0 L 0 0 L 32.59375 -153.328125 L 88.375 -153.328125 C 97.550781 -153.328125 105.921875 -152.84375 113.484375 -151.875 C 121.054688 -150.914062 127.578125 -148.984375 133.046875 -146.078125 C 138.523438 -143.179688 142.789062 -139.035156 145.84375 -133.640625 C 148.90625 -128.253906 150.4375 -121.054688 150.4375 -112.046875 C 150.4375 -103.671875 149.109375 -95.738281 146.453125 -88.25 C 143.796875 -80.769531 139.53125 -74.25 133.65625 -68.6875 C 127.78125 -63.132812 120.171875 -58.75 110.828125 -55.53125 C 101.492188 -52.3125 90.144531 -50.703125 76.78125 -50.703125 Z M 63.015625 -50.703125 "/></g></g></g><g fill="#293241" fill-opacity="1"><g transform="translate(173.360375, 206.915857)"><g><path d="M 133.78125 0 L 77.265625 0 L 73.890625 -38.390625 L 29.21875 -38.390625 L 12.078125 0 L -11.34375 0 L 59.890625 -153.328125 L 117.109375 -153.328125 Z M 37.1875 -56.015625 L 72.203125 -56.015625 L 66.640625 -121.703125 Z M 37.1875 -56.015625 "/></g></g></g><g fill="#293241" fill-opacity="1"><g transform="translate(28.604487, 326.97336)"><g><path d="M 19.796875 -153.328125 L 74.859375 -153.328125 L 83.0625 -49.5 L 133.296875 -153.328125 L 157.203125 -153.328125 L 85.71875 0 L 28.734375 0 Z M 19.796875 -153.328125 "/></g></g></g><g fill="#293241" fill-opacity="1"><g transform="translate(168.892536, 326.97336)"><g><path d="M 52.15625 0 L 0 0 L 32.59375 -153.328125 L 85 -153.328125 Z M 52.15625 0 "/></g></g></g><g fill="#293241" fill-opacity="1"><g transform="translate(247.608374, 326.97336)"><g><path d="M 31.875 -162.265625 L 81.140625 -162.265625 L 50.21875 -48.53125 L 15.9375 -48.53125 Z M 5.078125 -15.703125 C 5.078125 -19.078125 5.800781 -22.09375 7.25 -24.75 C 8.695312 -27.40625 10.585938 -29.617188 12.921875 -31.390625 C 15.253906 -33.160156 17.910156 -34.488281 20.890625 -35.375 C 23.867188 -36.257812 26.96875 -36.703125 30.1875 -36.703125 C 36.144531 -36.703125 41.175781 -35.253906 45.28125 -32.359375 C 49.382812 -29.460938 51.4375 -25.035156 51.4375 -19.078125 C 51.4375 -15.691406 50.75 -12.671875 49.375 -10.015625 C 48.007812 -7.359375 46.160156 -5.144531 43.828125 -3.375 C 41.492188 -1.601562 38.835938 -0.273438 35.859375 0.609375 C 32.878906 1.492188 29.695312 1.9375 26.3125 1.9375 C 20.363281 1.9375 15.335938 0.488281 11.234375 -2.40625 C 7.128906 -5.3125 5.078125 -9.742188 5.078125 -15.703125 Z M 5.078125 -15.703125 "/></g></g></g><path stroke-linecap="butt" transform="matrix(1.062456, 0, 0, 1.062456, -10.341158, 63.484325)" fill="none" stroke-linejoin="miter" d="M 154.967245 72.742044 C 159.518905 72.742044 163.34627 70.855936 166.453017 67.083721 C 169.559764 63.271062 172.129724 58.649546 174.166573 53.21182 C 176.199746 47.733651 177.663042 42.038561 178.549108 36.119197 C 179.475617 30.199833 179.935195 25.059913 179.935195 20.695761 C 179.935195 16.588972 179.251343 13.147653 177.883639 10.371802 C 176.552702 7.562861 173.611403 6.154715 169.059743 6.154715 L 158.79461 6.154715 L 144.481514 72.742044 Z M 141.315941 87.279414 L 131.105958 134.998311 L 82.000973 134.998311 L 112.686073 -9.323871 L 165.177228 -9.323871 C 173.832 -9.323871 181.711005 -8.864293 188.814241 -7.937784 C 195.954244 -7.051717 202.094206 -5.239142 207.237802 -2.500057 C 212.377722 0.239027 216.392595 4.139925 219.278744 9.206312 C 222.164894 14.276376 223.60613 21.04504 223.60613 29.515981 C 223.60613 37.394985 222.348725 44.869561 219.833915 51.932355 C 217.35587 58.962059 213.340997 65.10202 207.792972 70.355916 C 202.281714 75.573044 195.123327 79.698216 186.317814 82.731431 C 177.5123 85.764645 166.842739 87.279414 154.301776 87.279414 Z M 298.804112 134.998311 L 245.647489 134.998311 L 242.430443 98.875485 L 200.425019 98.875485 L 184.277288 134.998311 L 162.19181 134.998311 L 229.279161 -9.323871 L 283.156403 -9.323871 Z M 207.914301 82.286559 L 240.875231 82.286559 L 235.602953 20.471487 Z M 207.914301 82.286559 " stroke="#ee6c4d" stroke-width="6.250282" stroke-opacity="1" stroke-miterlimit="4"/><path stroke-linecap="butt" transform="matrix(1.062456, 0, 0, 1.062456, -10.341158, 63.484325)" fill="none" stroke-linejoin="miter" d="M 55.301333 103.673478 L 107.127019 103.673478 L 114.840575 201.39078 L 162.114601 103.673478 L 184.589801 103.673478 L 117.337002 247.999337 L 63.680358 247.999337 Z M 217.804418 247.999337 L 168.695757 247.999337 L 199.380858 103.673478 L 248.710116 103.673478 Z M 272.806707 95.239304 L 319.139518 95.239304 L 290.061102 202.331996 L 257.769317 202.331996 Z M 247.559333 233.24137 C 247.559333 230.057414 248.243185 227.230091 249.610889 224.752046 C 250.978593 222.233559 252.754402 220.145237 254.938317 218.479726 C 257.158997 216.77745 259.655425 215.520044 262.427599 214.707511 C 265.240216 213.854534 268.163132 213.431722 271.196346 213.431722 C 276.817903 213.431722 281.553395 214.799426 285.40282 217.538511 C 289.248568 220.273919 291.171442 224.435857 291.171442 230.020648 C 291.171442 233.204604 290.524356 236.050311 289.230185 238.568798 C 287.972779 241.083608 286.233736 243.17193 284.013056 244.837441 C 281.832818 246.502951 279.332714 247.741974 276.523774 248.554507 C 273.711157 249.407484 270.714708 249.830296 267.534429 249.830296 C 261.949638 249.830296 257.214147 248.462592 253.327955 245.723507 C 249.482207 242.988099 247.559333 238.826161 247.559333 233.24137 Z M 247.559333 233.24137 " stroke="#ee6c4d" stroke-width="6.250282" stroke-opacity="1" stroke-miterlimit="4"/><g fill="#293241" fill-opacity="1"><g transform="translate(76.780216, 206.915857)"><g><path d="M 77.515625 -66.15625 C 82.335938 -66.15625 86.398438 -68.164062 89.703125 -72.1875 C 93.003906 -76.21875 95.738281 -81.128906 97.90625 -86.921875 C 100.082031 -92.722656 101.65625 -98.757812 102.625 -105.03125 C 103.59375 -111.3125 104.078125 -116.785156 104.078125 -121.453125 C 104.078125 -125.804688 103.347656 -129.46875 101.890625 -132.4375 C 100.441406 -135.414062 97.304688 -136.90625 92.484375 -136.90625 L 81.609375 -136.90625 L 66.40625 -66.15625 Z M 63.015625 -50.703125 L 52.15625 0 L 0 0 L 32.59375 -153.328125 L 88.375 -153.328125 C 97.550781 -153.328125 105.921875 -152.84375 113.484375 -151.875 C 121.054688 -150.914062 127.578125 -148.984375 133.046875 -146.078125 C 138.523438 -143.179688 142.789062 -139.035156 145.84375 -133.640625 C 148.90625 -128.253906 150.4375 -121.054688 150.4375 -112.046875 C 150.4375 -103.671875 149.109375 -95.738281 146.453125 -88.25 C 143.796875 -80.769531 139.53125 -74.25 133.65625 -68.6875 C 127.78125 -63.132812 120.171875 -58.75 110.828125 -55.53125 C 101.492188 -52.3125 90.144531 -50.703125 76.78125 -50.703125 Z M 63.015625 -50.703125 "/></g></g></g><g fill="#293241" fill-opacity="1"><g transform="translate(173.360375, 206.915857)"><g><path d="M 133.78125 0 L 77.265625 0 L 73.890625 -38.390625 L 29.21875 -38.390625 L 12.078125 0 L -11.34375 0 L 59.890625 -153.328125 L 117.109375 -153.328125 Z M 37.1875 -56.015625 L 72.203125 -56.015625 L 66.640625 -121.703125 Z M 37.1875 -56.015625 "/></g></g></g><g fill="#293241" fill-opacity="1"><g transform="translate(28.604487, 326.97336)"><g><path d="M 19.796875 -153.328125 L 74.859375 -153.328125 L 83.0625 -49.5 L 133.296875 -153.328125 L 157.203125 -153.328125 L 85.71875 0 L 28.734375 0 Z M 19.796875 -153.328125 "/></g></g></g><g fill="#293241" fill-opacity="1"><g transform="translate(168.892536, 326.97336)"><g><path d="M 52.15625 0 L 0 0 L 32.59375 -153.328125 L 85 -153.328125 Z M 52.15625 0 "/></g></g></g><g fill="#293241" fill-opacity="1"><g transform="translate(247.608374, 326.97336)"><g><path d="M 31.875 -162.265625 L 81.140625 -162.265625 L 50.21875 -48.53125 L 15.9375 -48.53125 Z M 5.078125 -15.703125 C 5.078125 -19.078125 5.800781 -22.09375 7.25 -24.75 C 8.695312 -27.40625 10.585938 -29.617188 12.921875 -31.390625 C 15.253906 -33.160156 17.910156 -34.488281 20.890625 -35.375 C 23.867188 -36.257812 26.96875 -36.703125 30.1875 -36.703125 C 36.144531 -36.703125 41.175781 -35.253906 45.28125 -32.359375 C 49.382812 -29.460938 51.4375 -25.035156 51.4375 -19.078125 C 51.4375 -15.691406 50.75 -12.671875 49.375 -10.015625 C 48.007812 -7.359375 46.160156 -5.144531 43.828125 -3.375 C 41.492188 -1.601562 38.835938 -0.273438 35.859375 0.609375 C 32.878906 1.492188 29.695312 1.9375 26.3125 1.9375 C 20.363281 1.9375 15.335938 0.488281 11.234375 -2.40625 C 7.128906 -5.3125 5.078125 -9.742188 5.078125 -15.703125 Z M 5.078125 -15.703125 "/></g></g></g></svg>