<svg xmlns="http://www.w3.org/2000/svg" xmlns:xlink="http://www.w3.org/1999/xlink" viewBox="0 0 275 65" preserveAspectRatio="xMidYMid" style="display: block; shape-rendering: auto; background: transparent;" width="275" height="65"><style type="text/css">
  .ld-text text {
    text-anchor: middle;
    dominant-baseline: middle;
    font-size: 52px;
    opacity: 0;
    user-select: none;
    pointer-events: none;
  }
</style>
<g style="transform-origin:137.5px 32.5px;transform:scale(1)" class="ld-text">
<g transform="translate(137.5,32.5)">
  <g transform="scale(0.6500) translate(0,0)"><g class="path" style="opacity: 1; transform-origin: -139.88px -11.85px; transform: matrix3d(0.91, 0, 0, 0, 0, 0.91, 0, 0, 0, 0, 0.91, 0, 0, 0, 0, 1); animation: 1.5873s linear -0.952381s infinite normal forwards running animate-0v347419de8a; transform-box: view-box;"><path d="M37.11 19.36L37.11 19.36Q37.11 22.21 36.04 24.71Q34.96 27.21 33.09 29.09Q31.21 30.96 28.71 32.04Q26.21 33.11 23.36 33.11L23.36 33.11L19.38 33.11Q16.52 33.11 14 32.04Q11.48 30.96 9.61 29.09Q7.73 27.21 6.66 24.71Q5.59 22.21 5.59 19.36L5.59 19.36L5.59-10.72Q5.59-13.57 6.66-16.07Q7.73-18.57 9.61-20.44Q11.48-22.32 14-23.39Q16.52-24.47 19.38-24.47L19.38-24.47L23.36-24.47Q26.21-24.47 28.71-23.39Q31.21-22.32 33.09-20.44Q34.96-18.57 36.04-16.07Q37.11-13.57 37.11-10.72L37.11-10.72L37.11-8.45L32.07-7.67L32.07-10.72Q32.07-12.59 31.37-14.21Q30.66-15.83 29.45-17.05Q28.24-18.26 26.62-18.96Q25-19.66 23.13-19.66L23.13-19.66L19.61-19.66Q17.73-19.66 16.11-18.96Q14.49-18.26 13.26-17.05Q12.03-15.83 11.33-14.21Q10.63-12.59 10.63-10.72L10.63-10.72L10.63 19.36Q10.63 21.24 11.33 22.86Q12.03 24.48 13.26 25.71Q14.49 26.94 16.11 27.64Q17.73 28.35 19.61 28.35L19.61 28.35L23.13 28.35Q25 28.35 26.62 27.64Q28.24 26.94 29.45 25.71Q30.66 24.48 31.37 22.86Q32.07 21.24 32.07 19.36L32.07 19.36L32.07 16.31L37.11 17.13L37.11 19.36" style="fill: rgb(255, 255, 255);" transform="translate(-161.230,-16.165)"></path></g><g class="path" style="opacity: 1; transform-origin: -101.15px -3.84px; transform: matrix3d(0.91, 0, 0, 0, 0, 0.91, 0, 0, 0, 0, 0.91, 0, 0, 0, 0, 1); animation: 1.5873s linear -0.857143s infinite normal forwards running animate-0v347419de8a; transform-box: view-box;"><path d="M73.44 32.33L71.84 32.33L69.18 28.35Q67.54 30.49 65.08 31.80Q62.62 33.11 59.69 33.11L59.69 33.11L58.48 33.11Q56.05 33.11 53.91 32.19Q51.76 31.28 50.16 29.67Q48.55 28.07 47.64 25.92Q46.72 23.78 46.72 21.35L46.72 21.35L46.72 20.96Q46.72 18.54 47.64 16.39Q48.55 14.24 50.16 12.64Q51.76 11.04 53.91 10.12Q56.05 9.20 58.48 9.20L58.48 9.20L68.63 9.20L68.63 3.03Q68.63 1.59 68.09 0.32Q67.54-0.95 66.60-1.89Q65.66-2.83 64.39-3.37Q63.13-3.92 61.68-3.92L61.68-3.92L58.87-3.92Q57.42-3.92 56.15-3.37Q54.88-2.83 53.95-1.89Q53.01-0.95 52.46 0.32Q51.91 1.59 51.91 3.03L51.91 3.03L51.91 4.48L47.11 3.70L47.11 3.31Q47.11 0.88 48.03-1.26Q48.95-3.41 50.55-5.01Q52.15-6.62 54.30-7.53Q56.45-8.45 58.87-8.45L58.87-8.45L61.68-8.45Q64.10-8.45 66.25-7.53Q68.40-6.62 70-5.01Q71.60-3.41 72.52-1.26Q73.44 0.88 73.44 3.31L73.44 3.31L73.44 32.33 zM68.63 21.63L68.63 12.95L58.48 12.95Q57.03 12.95 55.76 13.50Q54.49 14.05 53.55 15.01Q52.62 15.96 52.07 17.23Q51.52 18.50 51.52 19.95L51.52 19.95L51.52 21.63Q51.52 23.07 52.07 24.34Q52.62 25.61 53.55 26.55Q54.49 27.49 55.76 28.03Q57.03 28.58 58.48 28.58L58.48 28.58L61.68 28.58Q63.13 28.58 64.39 28.03Q65.66 27.49 66.60 26.55Q67.54 25.61 68.09 24.34Q68.63 23.07 68.63 21.63L68.63 21.63" style="fill: rgb(255, 255, 255);" transform="translate(-161.230,-16.165)"></path></g><g class="path" style="opacity: 1; transform-origin: -69.9px -4.23px; transform: matrix3d(0.91, 0, 0, 0, 0, 0.91, 0, 0, 0, 0, 0.91, 0, 0, 0, 0, 1); animation: 1.5873s linear -0.761905s infinite normal forwards running animate-0v347419de8a; transform-box: view-box;"><path d="M99.61-3.10L94.80-3.10Q93.36-3.10 92.09-2.55Q90.82-2.01 89.88-1.07Q88.95-0.13 88.40 1.14Q87.85 2.41 87.85 3.85L87.85 3.85L87.85 32.33L83.05 32.33L83.05-7.67L84.65-7.67L87.27-3.61Q88.91-5.83 91.39-7.14Q93.87-8.45 96.80-8.45L96.80-8.45L99.61-8.45L99.61-3.10" style="fill: rgb(255, 255, 255);" transform="translate(-161.230,-16.165)"></path></g><g class="path" style="opacity: 1; transform-origin: -41.46px 3.78px; transform: matrix3d(0.91, 0, 0, 0, 0, 0.91, 0, 0, 0, 0, 0.91, 0, 0, 0, 0, 1); animation: 1.5873s linear -0.666667s infinite normal forwards running animate-0v347419de8a; transform-box: view-box;"><path d="M133.13 37.37L133.13 37.37Q133.13 39.79 132.21 41.82Q131.29 43.85 129.69 45.30Q128.09 46.74 125.94 47.54Q123.79 48.35 121.37 48.35L121.37 48.35L119.38 48.35Q116.95 48.35 114.80 47.54Q112.66 46.74 111.05 45.30Q109.45 43.85 108.54 41.82Q107.62 39.79 107.62 37.37L107.62 37.37L107.62 37.21Q107.62 34.87 108.48 32.92Q109.34 30.96 110.82 29.52L110.82 29.52Q108.95 28.38 107.83 26.45Q106.72 24.52 106.72 22.17L106.72 22.17Q106.72 20.06 107.62 18.25Q108.52 16.43 110.08 15.30L110.08 15.30Q108.20 13.66 107.11 11.35Q106.02 9.05 106.02 6.31L106.02 6.31L106.02 3.31Q106.02 0.88 106.93-1.26Q107.85-3.41 109.45-5.01Q111.05-6.62 113.20-7.53Q115.35-8.45 117.77-8.45L117.77-8.45L119.77-8.45Q122.70-8.45 125.18-7.14Q127.66-5.83 129.30-3.61L129.30-3.61L131.91-7.67L133.52-7.67L133.52 6.31Q133.52 8.74 132.60 10.88Q131.68 13.03 130.08 14.63Q128.48 16.24 126.33 17.15Q124.18 18.07 121.76 18.07L121.76 18.07L114.80 18.07Q113.98 18.07 113.24 18.40Q112.50 18.74 111.93 19.28Q111.37 19.83 111.05 20.59Q110.74 21.35 110.74 22.17L110.74 22.17Q110.74 22.99 111.05 23.74Q111.37 24.48 111.93 25.04Q112.50 25.61 113.24 25.92Q113.98 26.24 114.80 26.24L114.80 26.24L121.37 26.24Q123.79 26.24 125.94 27.04Q128.09 27.84 129.69 29.28Q131.29 30.73 132.21 32.76Q133.13 34.79 133.13 37.21L133.13 37.21L133.13 37.37 zM128.75 6.59L128.75 3.03Q128.75 1.59 128.20 0.32Q127.66-0.95 126.70-1.89Q125.74-2.83 124.47-3.37Q123.20-3.92 121.76-3.92L121.76-3.92L117.77-3.92Q116.33-3.92 115.06-3.37Q113.79-2.83 112.85-1.89Q111.91-0.95 111.37 0.32Q110.82 1.59 110.82 3.03L110.82 3.03L110.82 6.59Q110.82 8.03 111.37 9.30Q111.91 10.57 112.85 11.51Q113.79 12.45 115.06 12.99Q116.33 13.54 117.77 13.54L117.77 13.54L121.76 13.54Q123.20 13.54 124.47 12.99Q125.74 12.45 126.70 11.51Q127.66 10.57 128.20 9.30Q128.75 8.03 128.75 6.59L128.75 6.59 zM128.55 37.60L128.55 36.98Q128.55 35.53 128.01 34.38Q127.46 33.23 126.52 32.45Q125.59 31.67 124.32 31.24Q123.05 30.81 121.60 30.81L121.60 30.81L119.14 30.81Q117.70 30.81 116.43 31.24Q115.16 31.67 114.22 32.45Q113.28 33.23 112.73 34.38Q112.19 35.53 112.19 36.98L112.19 36.98L112.19 37.60Q112.19 39.05 112.73 40.18Q113.28 41.31 114.22 42.12Q115.16 42.92 116.43 43.35Q117.70 43.78 119.14 43.78L119.14 43.78L121.60 43.78Q123.05 43.78 124.32 43.35Q125.59 42.92 126.52 42.12Q127.46 41.31 128.01 40.18Q128.55 39.05 128.55 37.60L128.55 37.60" style="fill: rgb(255, 255, 255);" transform="translate(-161.230,-16.165)"></path></g><g class="path" style="opacity: 1; transform-origin: -5.53px -3.84px; transform: matrix3d(0.91, 0, 0, 0, 0, 0.91, 0, 0, 0, 0, 0.91, 0, 0, 0, 0, 1); animation: 1.5873s linear -0.571429s infinite normal forwards running animate-0v347419de8a; transform-box: view-box;"><path d="M169.06 32.33L167.46 32.33L164.80 28.35Q163.16 30.49 160.70 31.80Q158.24 33.11 155.31 33.11L155.31 33.11L154.10 33.11Q151.68 33.11 149.53 32.19Q147.38 31.28 145.78 29.67Q144.18 28.07 143.26 25.92Q142.34 23.78 142.34 21.35L142.34 21.35L142.34 20.96Q142.34 18.54 143.26 16.39Q144.18 14.24 145.78 12.64Q147.38 11.04 149.53 10.12Q151.68 9.20 154.10 9.20L154.10 9.20L164.26 9.20L164.26 3.03Q164.26 1.59 163.71 0.32Q163.16-0.95 162.23-1.89Q161.29-2.83 160.02-3.37Q158.75-3.92 157.30-3.92L157.30-3.92L154.49-3.92Q153.05-3.92 151.78-3.37Q150.51-2.83 149.57-1.89Q148.63-0.95 148.09 0.32Q147.54 1.59 147.54 3.03L147.54 3.03L147.54 4.48L142.73 3.70L142.73 3.31Q142.73 0.88 143.65-1.26Q144.57-3.41 146.17-5.01Q147.77-6.62 149.92-7.53Q152.07-8.45 154.49-8.45L154.49-8.45L157.30-8.45Q159.73-8.45 161.88-7.53Q164.02-6.62 165.63-5.01Q167.23-3.41 168.14-1.26Q169.06 0.88 169.06 3.31L169.06 3.31L169.06 32.33 zM164.26 21.63L164.26 12.95L154.10 12.95Q152.66 12.95 151.39 13.50Q150.12 14.05 149.18 15.01Q148.24 15.96 147.70 17.23Q147.15 18.50 147.15 19.95L147.15 19.95L147.15 21.63Q147.15 23.07 147.70 24.34Q148.24 25.61 149.18 26.55Q150.12 27.49 151.39 28.03Q152.66 28.58 154.10 28.58L154.10 28.58L157.30 28.58Q158.75 28.58 160.02 28.03Q161.29 27.49 162.23 26.55Q163.16 25.61 163.71 24.34Q164.26 23.07 164.26 21.63L164.26 21.63" style="fill: rgb(255, 255, 255);" transform="translate(-161.230,-16.165)"></path></g><g class="path" style="opacity: 1; transform-origin: 30.8px -4.23px; transform: matrix3d(0.91, 0, 0, 0, 0, 0.91, 0, 0, 0, 0, 0.91, 0, 0, 0, 0, 1); animation: 1.5873s linear -0.47619s infinite normal forwards running animate-0v347419de8a; transform-box: view-box;"><path d="M205.39 32.33L200.59 32.33L200.59 3.03Q200.59 1.59 200.04 0.32Q199.49-0.95 198.55-1.89Q197.62-2.83 196.35-3.37Q195.08-3.92 193.63-3.92L193.63-3.92L190.43-3.92Q188.98-3.92 187.71-3.37Q186.45-2.83 185.51-1.89Q184.57-0.95 184.02 0.32Q183.48 1.59 183.48 3.03L183.48 3.03L183.48 32.33L178.67 32.33L178.67-7.67L180.27-7.67L182.89-3.61Q184.53-5.83 187.01-7.14Q189.49-8.45 192.42-8.45L192.42-8.45L193.63-8.45Q196.05-8.45 198.20-7.53Q200.35-6.62 201.95-5.01Q203.55-3.41 204.47-1.26Q205.39 0.88 205.39 3.31L205.39 3.31L205.39 32.33" style="fill: rgb(255, 255, 255);" transform="translate(-161.230,-16.165)"></path></g><g class="path" style="opacity: 1; transform-origin: 67.13px -11.46px; transform: matrix3d(0.91, 0, 0, 0, 0, 0.91, 0, 0, 0, 0, 0.91, 0, 0, 0, 0, 1); animation: 1.5873s linear -0.380952s infinite normal forwards running animate-0v347419de8a; transform-box: view-box;"><path d="M241.72 32.33L240.12 32.33L237.46 28.27Q235.82 30.49 233.36 31.80Q230.90 33.11 227.97 33.11L227.97 33.11L226.76 33.11Q224.34 33.11 222.19 32.19Q220.04 31.28 218.44 29.67Q216.84 28.07 215.92 25.92Q215 23.78 215 21.35L215 21.35L215 3.31Q215 0.88 215.92-1.26Q216.84-3.41 218.44-5.01Q220.04-6.62 222.19-7.53Q224.34-8.45 226.76-8.45L226.76-8.45L227.97-8.45Q230.66-8.45 232.97-7.36Q235.27-6.26 236.91-4.31L236.91-4.31L236.91-23.69L241.72-23.69L241.72 32.33 zM236.91 21.63L236.91 3.03Q236.91 1.59 236.37 0.32Q235.82-0.95 234.88-1.89Q233.95-2.83 232.68-3.37Q231.41-3.92 229.96-3.92L229.96-3.92L226.76-3.92Q225.31-3.92 224.04-3.37Q222.77-2.83 221.84-1.89Q220.90-0.95 220.35 0.32Q219.80 1.59 219.80 3.03L219.80 3.03L219.80 21.63Q219.80 23.07 220.35 24.34Q220.90 25.61 221.84 26.55Q222.77 27.49 224.04 28.03Q225.31 28.58 226.76 28.58L226.76 28.58L229.96 28.58Q231.41 28.58 232.68 28.03Q233.95 27.49 234.88 26.55Q235.82 25.61 236.37 24.34Q236.91 23.07 236.91 21.63L236.91 21.63" style="fill: rgb(255, 255, 255);" transform="translate(-161.230,-16.165)"></path></g><g class="path" style="opacity: 1; transform-origin: 103.46px -3.84px; transform: matrix3d(0.91, 0, 0, 0, 0, 0.91, 0, 0, 0, 0, 0.91, 0, 0, 0, 0, 1); animation: 1.5873s linear -0.285714s infinite normal forwards running animate-0v347419de8a; transform-box: view-box;"><path d="M278.05 21.35L278.05 21.35Q278.05 23.78 277.13 25.92Q276.21 28.07 274.61 29.67Q273.01 31.28 270.86 32.19Q268.71 33.11 266.29 33.11L266.29 33.11L263.09 33.11Q260.66 33.11 258.52 32.19Q256.37 31.28 254.77 29.67Q253.16 28.07 252.25 25.92Q251.33 23.78 251.33 21.35L251.33 21.35L251.33 3.31Q251.33 0.88 252.25-1.26Q253.16-3.41 254.77-5.01Q256.37-6.62 258.52-7.53Q260.66-8.45 263.09-8.45L263.09-8.45L266.29-8.45Q268.71-8.45 270.86-7.53Q273.01-6.62 274.61-5.01Q276.21-3.41 277.13-1.26Q278.05 0.88 278.05 3.31L278.05 3.31L278.05 21.35 zM273.24 21.63L273.24 3.03Q273.24 1.59 272.70 0.32Q272.15-0.95 271.21-1.89Q270.27-2.83 269-3.37Q267.73-3.92 266.29-3.92L266.29-3.92L263.09-3.92Q261.64-3.92 260.37-3.37Q259.10-2.83 258.16-1.89Q257.23-0.95 256.68 0.32Q256.13 1.59 256.13 3.03L256.13 3.03L256.13 21.63Q256.13 23.07 256.68 24.34Q257.23 25.61 258.16 26.55Q259.10 27.49 260.37 28.03Q261.64 28.58 263.09 28.58L263.09 28.58L266.29 28.58Q267.73 28.58 269 28.03Q270.27 27.49 271.21 26.55Q272.15 25.61 272.70 24.34Q273.24 23.07 273.24 21.63L273.24 21.63" style="fill: rgb(255, 255, 255);" transform="translate(-161.230,-16.165)"></path></g><g class="path" style="opacity: 1; transform-origin: 129.44px 13.15px; transform: matrix3d(0.91, 0, 0, 0, 0, 0.91, 0, 0, 0, 0, 0.91, 0, 0, 0, 0, 1); animation: 1.5873s linear -0.190476s infinite normal forwards running animate-0v347419de8a; transform-box: view-box;"><path d="M293.67 32.33L287.66 32.33L287.66 26.31L293.67 26.31L293.67 32.33" style="fill: rgb(255, 255, 255);" transform="translate(-161.230,-16.165)"></path></g><g class="path" style="opacity: 1; transform-origin: 146.62px 13.15px; transform: matrix3d(0.91, 0, 0, 0, 0, 0.91, 0, 0, 0, 0, 0.91, 0, 0, 0, 0, 1); animation: 1.5873s linear -0.0952381s infinite normal forwards running animate-0v347419de8a; transform-box: view-box;"><path d="M310.86 32.33L304.84 32.33L304.84 26.31L310.86 26.31L310.86 32.33" style="fill: rgb(255, 255, 255);" transform="translate(-161.230,-16.165)"></path></g><g class="path" style="opacity: 1; transform-origin: 163.81px 13.15px; transform: matrix3d(0.91, 0, 0, 0, 0, 0.91, 0, 0, 0, 0, 0.91, 0, 0, 0, 0, 1); animation: 1.5873s linear 0s infinite normal forwards running animate-0v347419de8a; transform-box: view-box;"><path d="M328.05 32.33L322.03 32.33L322.03 26.31L328.05 26.31L328.05 32.33" style="fill: rgb(255, 255, 255);" transform="translate(-161.230,-16.165)"></path></g></g><text dy="0.35em" fill="#ffffff" font-family="Abel" font-size="52">Cargando...</text>
</g>
</g><style type="text/css">@keyframes animate-0v347419de8a { 0.00% {transform: translate(0.00px,0.00px) rotate(0.00deg) scale(0.91, 0.91) skew(0deg, 0.00deg) ;opacity: 1.00;}4.00% {transform: translate(0.00px,0.00px) rotate(0.00deg) scale(0.91, 0.91) ;}8.00% {animation-timing-function: cubic-bezier(0.69,0.60,0.35,0.27);transform: translate(0.00px,0.00px) rotate(0.00deg) scale(0.91, 0.91) ;}14.00% {transform: translate(0.00px,0.00px) rotate(0.00deg) scale(0.93, 0.93) ;}18.00% {transform: translate(0.00px,0.00px) rotate(0.00deg) scale(0.94, 0.94) ;}22.00% {animation-timing-function: cubic-bezier(0.67,0.66,0.34,0.33);transform: translate(0.00px,0.00px) rotate(0.00deg) scale(0.96, 0.96) ;}26.00% {transform: translate(0.00px,0.00px) rotate(0.00deg) scale(0.97, 0.97) ;}30.00% {transform: translate(0.00px,0.00px) rotate(0.00deg) scale(0.99, 0.99) ;}34.00% {animation-timing-function: cubic-bezier(0.65,0.71,0.32,0.38);transform: translate(0.00px,0.00px) rotate(0.00deg) scale(1.01, 1.01) ;}40.00% {animation-timing-function: cubic-bezier(0.64,0.74,0.31,0.41);transform: translate(0.00px,0.00px) rotate(0.00deg) scale(1.02, 1.02) ;}46.00% {animation-timing-function: cubic-bezier(0.60,0.91,0.23,0.63);transform: translate(0.00px,0.00px) rotate(0.00deg) scale(1.03, 1.03) ;}50.00% {transform: translate(0.00px,0.00px) rotate(0.00deg) scale(1.03, 1.03) ;}54.00% {transform: translate(0.00px,0.00px) rotate(0.00deg) scale(1.03, 1.03) ;}58.00% {animation-timing-function: cubic-bezier(0.69,0.60,0.35,0.27);transform: translate(0.00px,0.00px) rotate(0.00deg) scale(1.03, 1.03) ;}64.00% {transform: translate(0.00px,0.00px) rotate(0.00deg) scale(1.01, 1.01) ;}68.00% {transform: translate(0.00px,0.00px) rotate(0.00deg) scale(1.00, 1.00) ;}72.00% {animation-timing-function: cubic-bezier(0.67,0.66,0.34,0.33);transform: translate(0.00px,0.00px) rotate(0.00deg) scale(0.98, 0.98) ;}76.00% {animation-timing-function: cubic-bezier(0.66,0.68,0.33,0.35);transform: translate(0.00px,0.00px) rotate(0.00deg) scale(0.97, 0.97) ;}82.00% {animation-timing-function: cubic-bezier(0.65,0.71,0.32,0.38);transform: translate(0.00px,0.00px) rotate(0.00deg) scale(0.94, 0.94) ;}88.00% {animation-timing-function: cubic-bezier(0.65,0.73,0.31,0.40);transform: translate(0.00px,0.00px) rotate(0.00deg) scale(0.92, 0.92) ;}94.00% {animation-timing-function: cubic-bezier(0.63,0.80,0.28,0.48);transform: translate(0.00px,0.00px) rotate(0.00deg) scale(0.91, 0.91) ;}100.00% {animation-timing-function: cubic-bezier(0.63,0.80,0.28,0.48);transform: translate(0.00px,0.00px) rotate(0.00deg) scale(0.91, 0.91) ;} }</style><!-- [ldio] generated by https://loading.io --></svg>